<?xml version="1.0" standalone="no"?>
<!DOCTYPE svg PUBLIC "-//W3C//DTD SVG 1.1//EN" "http://www.w3.org/Graphics/SVG/1.1/DTD/svg11.dtd" >
<svg>
<metadata>
Created by FontForge 20120731 at Wed Aug  3 14:07:48 2016
 By www
Copyright (c) 2012 by TypeTogether. All rights reserved.
</metadata>
<defs>
<font id="AdelleSansW01-SemiBold" horiz-adv-x="570" >
  <font-face 
    font-family="AdelleSansW01-SemiBold"
    font-weight="600"
    font-stretch="normal"
    units-per-em="1000"
    panose-1="2 0 5 3 0 0 0 2 0 4"
    ascent="800"
    descent="-200"
    x-height="517"
    cap-height="724"
    bbox="-114 -232 1044 918"
    underline-thickness="50"
    underline-position="-125"
    unicode-range="U+0020-2122"
  />
<missing-glyph horiz-adv-x="500" 
 />
    <glyph glyph-name=".notdef" horiz-adv-x="500" 
 />
    <glyph glyph-name="glyph1" horiz-adv-x="0" 
 />
    <glyph glyph-name="glyph1" horiz-adv-x="0" 
 />
    <glyph glyph-name="nonmarkingreturn" horiz-adv-x="333" 
 />
    <glyph glyph-name="space" unicode=" " horiz-adv-x="198" 
 />
    <glyph glyph-name="exclam" unicode="!" horiz-adv-x="276" 
d="M93 191l-18 533h126l-17 -533h-91zM214 58q0 -70 -75 -70q-76 0 -76 70q0 71 76 71q75 0 75 -71z" />
    <glyph glyph-name="quotedbl" unicode="&#x22;" horiz-adv-x="392" 
d="M229 465v259h108v-259h-108zM55 465v259h108v-259h-108z" />
    <glyph glyph-name="numbersign" unicode="#" horiz-adv-x="607" 
d="M312 0l22 142h-108l-21 -142h-85l21 142h-109l18 83h104l21 131h-109l17 84h104l19 133h85l-20 -133h106l20 133h85l-20 -133h110l-16 -84h-106l-19 -131h108l-16 -83h-105l-21 -142h-85zM365 356h-106l-20 -131h107z" />
    <glyph glyph-name="dollar" unicode="$" horiz-adv-x="537" 
d="M384 508q-7 40 -22 66.5t-50 36.5v-211q37 -10 71 -23.5t59.5 -35.5t41 -55.5t15.5 -82.5q0 -89 -49.5 -139t-132.5 -62v-83h-89v83q-36 3 -70.5 14.5t-62.5 34.5t-46.5 59t-24.5 89l102 19q10 -57 32 -88.5t77 -38.5v216q-35 9 -68.5 22t-59.5 35.5t-42.5 56.5t-16.5 86
q0 43 14.5 77t39 58.5t57.5 40.5t70 23v86h88v-85q35 -4 64.5 -16.5t52 -35t36.5 -55.5t19 -78zM387 188q0 42 -21.5 63t-53.5 34v-190q34 8 54.5 30.5t20.5 62.5zM161 523q0 -36 17.5 -59.5t56.5 -40.5v189q-40 -9 -57 -33.5t-17 -55.5z" />
    <glyph glyph-name="percent" unicode="%" horiz-adv-x="813" 
d="M612 -12q-46 0 -77 14.5t-50 38.5t-27.5 56t-8.5 67q0 84 42.5 135.5t128.5 51.5q87 0 124.5 -47.5t37.5 -126.5q0 -85 -42.5 -137t-127.5 -52zM616 59q42 0 57.5 30t15.5 84q0 48 -15 77t-56 29q-42 0 -58.5 -31.5t-16.5 -77.5q0 -51 15.5 -81t57.5 -30zM125 -15
l439 739h103l-438 -739h-104zM185 375q-46 0 -77 14.5t-50 38.5t-27.5 56t-8.5 67q0 84 42.5 135.5t128.5 51.5q87 0 124.5 -47.5t37.5 -126.5q0 -85 -42.5 -137t-127.5 -52zM189 446q42 0 57.5 30t15.5 84q0 48 -15 77t-56 29q-42 0 -58.5 -31.5t-16.5 -77.5
q0 -51 15.5 -81t57.5 -30z" />
    <glyph glyph-name="ampersand" unicode="&#x26;" horiz-adv-x="717" 
d="M508 560q0 -23 -6.5 -46.5t-23.5 -46.5t-47 -45.5t-77 -42.5l-28 -11q32 -50 70.5 -97.5t84.5 -97.5q23 35 31.5 80t10.5 96h102q0 -61 -16 -122.5t-55 -112.5q20 -14 40 -22.5t43 -8.5q19 0 42 9l16 -86q-17 -8 -37.5 -12t-38.5 -4q-42 0 -76.5 13.5t-67.5 37.5
q-32 -24 -79.5 -38.5t-110.5 -14.5q-56 0 -99.5 15t-74.5 42t-47 64t-16 80q0 73 35.5 120.5t104.5 79.5q-20 35 -28.5 67.5t-8.5 67.5q0 39 14.5 71.5t40.5 55.5t62 36t79 13q28 0 57 -6.5t52 -22.5t37.5 -43t14.5 -68zM305 75q58 0 99 24q-51 47 -94.5 102t-82.5 117
q-27 -17 -44.5 -44t-17.5 -73q0 -25 8.5 -47.5t25.5 -40t43.5 -28t62.5 -10.5zM263 540q0 -26 7 -51.5t21 -54.5l4.5 2t9.5 4.5t9.5 4l4.5 1.5q48 21 69 47t21 61q0 27 -16.5 45.5t-51.5 18.5q-34 0 -56 -20t-22 -58z" />
    <glyph glyph-name="quotesingle" unicode="'" horiz-adv-x="218" 
d="M55 465v259h108v-259h-108z" />
    <glyph glyph-name="parenleft" unicode="(" horiz-adv-x="335" 
d="M194 -152q-27 40 -53 87.5t-46.5 101.5t-33 114.5t-12.5 128.5q0 67 13 128.5t34.5 117t49.5 105t59 93.5h118q-34 -52 -62 -104t-48.5 -106t-31.5 -111.5t-11 -120.5q0 -68 11.5 -127t31 -111.5t45.5 -101t55 -95.5z" />
    <glyph glyph-name="parenright" unicode=")" horiz-adv-x="335" 
d="M24 -153q29 47 55 95.5t45.5 101t31 111.5t11.5 127q0 63 -11.5 120.5t-31.5 111.5t-48 106t-62 104h118q31 -44 59 -93.5t49.5 -105t34.5 -117t13 -128.5q0 -68 -12.5 -128.5t-33 -114.5t-46.5 -101.5t-53 -87.5z" />
    <glyph glyph-name="asterisk" unicode="*" horiz-adv-x="473" 
d="M281 624l120 30l17 -55l-114 -57l76 -116l-44 -34l-102 96l-101 -99l-44 36l75 116l-116 57l17 55l121 -27l22 129h54z" />
    <glyph glyph-name="plus" unicode="+" 
d="M235 125v149h-141v97h141v145h98v-145h142v-97h-142v-149h-98z" />
    <glyph glyph-name="comma" unicode="," horiz-adv-x="229" 
d="M70 116h124l-90 -248l-92 10z" />
    <glyph glyph-name="hyphen" unicode="-" horiz-adv-x="315" 
d="M20 242v103h271v-103h-271z" />
    <glyph glyph-name="period" unicode="." horiz-adv-x="244" 
d="M200 63q0 -75 -78 -75t-78 75q0 76 78 76t78 -76z" />
    <glyph glyph-name="slash" unicode="/" horiz-adv-x="404" 
d="M8 -92l281 847h104l-280 -847h-105z" />
    <glyph glyph-name="zero" unicode="0" horiz-adv-x="571" 
d="M283 -12q-74 0 -122 27t-75.5 76t-38 118t-10.5 153t12 153t41.5 118.5t79 76.5t123.5 27t121 -27t73.5 -75.5t36.5 -115.5t10 -147q0 -88 -11.5 -159t-40 -121t-77 -77t-122.5 -27zM286 80q40 0 65 19t38.5 55t18.5 89.5t5 122.5q0 66 -4 117t-17 86.5t-37.5 53.5
t-64.5 18t-65.5 -18.5t-40.5 -54t-20.5 -88t-5.5 -120.5q0 -66 5 -118t18.5 -88t38.5 -55t66 -19z" />
    <glyph glyph-name="one" unicode="1" horiz-adv-x="424" 
d="M198 0v579q-13 -7 -34 -13t-44 -10t-44 -6.5t-33 -2.5l-7 93q69 6 119 25.5t85 58.5h72v-724h-114z" />
    <glyph glyph-name="two" unicode="2" horiz-adv-x="531" 
d="M271 737q97 0 151.5 -46t54.5 -137q0 -40 -10 -75t-30 -69.5t-49.5 -71.5t-67.5 -80l-138 -158v-2h305v-98h-436v96l163 194q36 43 63.5 77t46 64t28 58.5t9.5 60.5q0 49 -26.5 71t-74.5 22q-31 0 -52 -8.5t-34 -23.5t-20.5 -36.5t-11.5 -47.5l-102 18q7 51 27 87.5
t51 59.5t70 34t83 11z" />
    <glyph glyph-name="three" unicode="3" horiz-adv-x="546" 
d="M135 185q4 -24 11 -43t20.5 -32.5t34 -20.5t52.5 -7q25 0 47.5 7t39 22.5t26.5 39.5t10 58q0 69 -37 96.5t-101 27.5h-67v91h46q72 0 110.5 34t38.5 91q0 41 -21.5 68t-79.5 27q-57 0 -81 -24.5t-35 -72.5l-100 21q9 48 30.5 80t51.5 52t67.5 28.5t78.5 8.5
q100 0 151.5 -46.5t51.5 -126.5q0 -39 -12.5 -68t-32.5 -50.5t-44.5 -35t-48.5 -20.5v-3q72 -14 112 -57.5t40 -125.5q0 -49 -17.5 -89t-49 -68t-76.5 -43.5t-99 -15.5q-44 0 -81.5 10t-67 31t-48 54.5t-24.5 81.5z" />
    <glyph glyph-name="four" unicode="4" 
d="M354 0v172h-330v83l300 469h142v-457h84v-95h-85v-172h-111zM355 267v349l-224 -349h224z" />
    <glyph glyph-name="five" unicode="5" horiz-adv-x="549" 
d="M96 724h360v-98h-274l-20 -214q25 20 59 34t82 14q38 0 73.5 -11.5t62.5 -37.5t43.5 -68t16.5 -104q0 -57 -18 -103.5t-50.5 -79t-79 -50.5t-103.5 -18q-40 0 -77.5 9.5t-67.5 31t-50.5 55t-27.5 81.5l103 21q4 -21 11.5 -40t22 -33.5t36 -22.5t52.5 -8q25 0 49 8.5
t42.5 27t29.5 47.5t11 70q0 37 -9.5 62t-25.5 40.5t-37.5 22t-45.5 6.5q-35 0 -65 -15t-54 -38l-77 33z" />
    <glyph glyph-name="six" unicode="6" 
d="M420 548q-12 57 -37.5 77t-63.5 20q-42 0 -71 -24t-47 -63t-26 -87.5t-9 -97.5q26 26 71 48t99 22q92 0 142.5 -55t50.5 -153q0 -61 -17.5 -107.5t-48.5 -77.5t-74.5 -46.5t-94.5 -15.5q-72 0 -118.5 28t-73.5 76t-37 112.5t-10 136.5q0 41 5 86.5t16.5 89.5t32 83.5
t51 70t72.5 48.5t98 18q34 0 65 -8t56 -26.5t43.5 -49t27.5 -76.5zM172 287q1 -37 6 -74t18.5 -67t37.5 -48.5t63 -18.5q53 0 84 37t31 110q0 63 -25.5 94t-79.5 31q-38 0 -74 -19.5t-61 -44.5z" />
    <glyph glyph-name="seven" unicode="7" horiz-adv-x="520" 
d="M88 0l288 626h-343v98h464v-87l-287 -637h-122z" />
    <glyph glyph-name="eight" unicode="8" horiz-adv-x="551" 
d="M376 385q32 -15 59 -32t46.5 -40t30 -53t10.5 -70q0 -42 -17.5 -79t-50 -64.5t-79.5 -43t-105 -15.5q-63 0 -108 15t-74.5 40.5t-43 59.5t-13.5 72q0 72 38 119t107 78q-60 27 -90 71t-30 101q0 46 17.5 82t48 60.5t73.5 37.5t94 13q105 0 161 -45t56 -122
q0 -64 -35 -107.5t-95 -77.5zM256 326q-24 -12 -44 -25.5t-35 -30.5t-23.5 -37.5t-8.5 -47.5q0 -46 29.5 -76.5t98.5 -30.5q34 0 58.5 9t40.5 24.5t23.5 35t7.5 40.5q0 31 -13.5 53t-34.5 37.5t-47 27t-52 21.5zM291 426q46 25 73.5 59t27.5 77q0 42 -26 66t-81 24
q-51 0 -81.5 -25t-30.5 -68q0 -24 9 -44t25 -36t37.5 -29t46.5 -24z" />
    <glyph glyph-name="nine" unicode="9" 
d="M142 183q12 -57 40.5 -80.5t76.5 -23.5q40 0 68.5 21.5t46.5 58t26 84.5t9 101q-26 -26 -72 -46t-100 -20q-92 0 -142 56.5t-50 157.5q0 60 17.5 106t49 77t75 46.5t94.5 15.5q71 0 117 -28t72.5 -76t37 -112.5t10.5 -136.5q0 -70 -10 -140.5t-39 -127.5t-81 -92.5
t-136 -35.5q-39 0 -74 8.5t-63 28t-47.5 51t-27.5 77.5zM401 433q-2 40 -7 78t-18.5 68t-37.5 48t-63 18q-52 0 -83 -36t-31 -111q0 -64 25 -97.5t79 -33.5q38 0 74 19t62 47z" />
    <glyph glyph-name="colon" unicode=":" horiz-adv-x="244" 
d="M200 63q0 -75 -78 -75t-78 75q0 76 78 76t78 -76zM200 428q0 -75 -78 -75t-78 75q0 76 78 76t78 -76z" />
    <glyph glyph-name="semicolon" unicode=";" horiz-adv-x="256" 
d="M71 116h124l-90 -248l-92 10zM224 428q0 -75 -78 -75t-78 75q0 76 78 76t78 -76z" />
    <glyph glyph-name="less" unicode="&#x3c;" 
d="M78 231v115l383 148v-100l-282 -103l282 -102v-100z" />
    <glyph glyph-name="equal" unicode="=" 
d="M96 145v99h378v-99h-378zM96 319v99h378v-99h-378z" />
    <glyph glyph-name="greater" unicode="&#x3e;" 
d="M94 93v97l281 101l-281 102v101l383 -148v-112z" />
    <glyph glyph-name="question" unicode="?" horiz-adv-x="524" 
d="M158 191v180q39 3 75.5 11.5t65.5 25.5t46.5 44.5t17.5 69.5q0 58 -31 82.5t-78 24.5q-49 0 -80.5 -24t-43.5 -86l-109 18q6 40 23 75t46 61.5t71.5 41.5t99.5 15q43 0 83.5 -10t71.5 -33.5t49.5 -62.5t18.5 -97q0 -50 -15.5 -88.5t-44 -66t-67.5 -46t-87 -28.5v-107
h-112zM288 58q0 -70 -76 -70t-76 70q0 71 76 71t76 -71z" />
    <glyph glyph-name="at" unicode="@" horiz-adv-x="847" 
d="M663 -120q-39 -31 -99.5 -47t-135.5 -16q-80 0 -150 23t-122 69t-82 115.5t-30 162.5q0 87 29 159t81.5 123t126.5 79.5t164 28.5q78 0 143.5 -21.5t113 -63t74.5 -102.5t27 -140q0 -67 -13.5 -115t-37.5 -79.5t-57.5 -46.5t-73.5 -15q-43 0 -73.5 16t-42.5 39
q-20 -27 -49.5 -42t-66.5 -15q-39 0 -66.5 14t-45 39t-26 59t-8.5 74q0 47 11.5 87t33.5 69.5t53.5 46t70.5 16.5q29 0 51 -9.5t38 -25.5l7 29h70v-257q0 -15 1.5 -28t6.5 -22.5t14.5 -15t26.5 -5.5q22 0 38.5 14t28 38t17 56t5.5 68q0 127 -68.5 193.5t-208.5 66.5
q-77 0 -134.5 -25t-95.5 -67.5t-57 -98.5t-19 -117q0 -78 23 -134t63.5 -92t96.5 -53t122 -17q59 0 107.5 14t84.5 39zM496 302q-13 11 -30 19t-40 8q-41 0 -68.5 -33.5t-27.5 -108.5q0 -54 17 -89.5t61 -35.5q28 0 50 14.5t38 39.5v186z" />
    <glyph glyph-name="A" unicode="A" horiz-adv-x="696" 
d="M417 724l254 -724h-128l-68 198h-263l-66 -198h-119l241 724h149zM343 616h-2l-106 -320h213z" />
    <glyph glyph-name="B" unicode="B" horiz-adv-x="631" 
d="M87 0v724h266q64 0 106.5 -13.5t67.5 -37.5t35 -56.5t10 -69.5q0 -38 -11.5 -66.5t-31.5 -49t-46 -33.5t-55 -20v-3q89 -11 130 -56.5t41 -120.5q0 -56 -20 -93.5t-56 -61t-85.5 -33.5t-108.5 -10h-242zM310 94q36 0 66.5 4t52.5 16t34.5 34t12.5 58q0 34 -11.5 56
t-31.5 35t-47 18.5t-58 5.5h-125v-227h107zM289 416q28 0 57.5 4.5t53.5 16.5t39.5 34.5t15.5 58.5q0 32 -9.5 52t-27.5 30.5t-43.5 14t-58.5 3.5h-113v-214h86z" />
    <glyph glyph-name="C" unicode="C" horiz-adv-x="693" 
d="M370 -12q-87 0 -149 26t-101 74t-57 115t-18 149q0 89 23 160.5t67 121.5t107.5 76.5t144.5 26.5q58 0 107 -15t85 -46t58 -79t26 -113l-108 -10q-9 82 -48.5 122t-120.5 40q-103 0 -162 -67t-59 -209q0 -74 14 -125.5t41 -84.5t66 -48t90 -15q81 0 122 37.5t57 106.5
l104 -20q-9 -62 -37.5 -104.5t-68.5 -68.5t-87.5 -38t-95.5 -12z" />
    <glyph glyph-name="D" unicode="D" horiz-adv-x="726" 
d="M87 0v724h235q94 0 162 -24.5t111.5 -70t64.5 -110.5t21 -146q0 -83 -22.5 -152t-68.5 -118t-117 -76t-168 -27h-218zM304 95q67 0 115.5 18t80 52.5t46.5 84t15 112.5q0 77 -16.5 128.5t-48 82t-77.5 43.5t-106 13h-109v-534h100z" />
    <glyph glyph-name="E" unicode="E" horiz-adv-x="578" 
d="M204 98h336v-98h-453v724h438v-98h-321v-214h301v-97h-301v-217z" />
    <glyph glyph-name="F" unicode="F" horiz-adv-x="550" 
d="M204 0h-117v724h436v-98h-319v-226h295v-98h-295v-302z" />
    <glyph glyph-name="G" unicode="G" horiz-adv-x="737" 
d="M567 94q-11 -24 -32 -43.5t-49.5 -33.5t-62.5 -21.5t-70 -7.5q-81 0 -139.5 27t-96 75t-55 115t-17.5 147q0 90 23 161.5t67 121t108 76t146 26.5q58 0 106 -13.5t84 -43.5t58 -77t27 -113l-109 -12q-8 77 -47 118.5t-122 41.5q-108 0 -164 -72t-56 -203q0 -77 14.5 -130
t42.5 -85.5t67 -47t89 -14.5q43 0 76 13t55 35t33 49.5t11 57.5v47h-169v88h282v-376h-86z" />
    <glyph glyph-name="H" unicode="H" horiz-adv-x="730" 
d="M643 0h-117v316h-322v-316h-117v724h117v-305h322v305h117v-724z" />
    <glyph glyph-name="I" unicode="I" horiz-adv-x="291" 
d="M204 0h-117v724h117v-724z" />
    <glyph glyph-name="J" unicode="J" horiz-adv-x="511" 
d="M315 724h117v-534q0 -54 -14.5 -92t-42 -62.5t-66.5 -36t-88 -11.5q-45 0 -81 10t-61.5 32t-40.5 56.5t-17 84.5l113 18q2 -24 6.5 -43t14 -32.5t26 -21t43.5 -7.5q20 0 37 4.5t29 15.5t18.5 31t6.5 51v537z" />
    <glyph glyph-name="K" unicode="K" horiz-adv-x="655" 
d="M204 386l307 338h127l-276 -307l283 -417h-137l-228 327l-76 -82v-245h-117v724h117v-338z" />
    <glyph glyph-name="L" unicode="L" horiz-adv-x="558" 
d="M204 99h320v-99h-437v724h117v-625z" />
    <glyph glyph-name="M" unicode="M" horiz-adv-x="904" 
d="M817 0h-109v602h-3l-199 -602h-114l-195 604h-2v-604h-108v724h176l189 -582h3l188 582h174v-724z" />
    <glyph glyph-name="N" unicode="N" horiz-adv-x="745" 
d="M520 0l-325 569v-569h-108v724h147l317 -566v566h107v-724h-138z" />
    <glyph glyph-name="O" unicode="O" horiz-adv-x="760" 
d="M375 -12q-86 0 -148.5 27.5t-103 77t-59.5 118t-19 149.5t22 150t65.5 119.5t108 79t149.5 28.5t146 -28.5t101 -77.5t59 -115t19 -141q0 -88 -21 -159.5t-63.5 -122t-106.5 -78t-149 -27.5zM380 88q47 0 86.5 16t68 49.5t44.5 86t16 125.5q0 138 -56.5 204t-151.5 66
q-49 0 -89.5 -16.5t-70 -50.5t-45.5 -85.5t-16 -120.5q0 -71 15.5 -122.5t43.5 -85t67.5 -50t87.5 -16.5z" />
    <glyph glyph-name="P" unicode="P" horiz-adv-x="618" 
d="M203 0h-116v724h252q69 0 115.5 -18t74.5 -48.5t39.5 -70.5t11.5 -83q0 -130 -72.5 -190.5t-207.5 -60.5h-97v-253zM290 350q35 0 66 5.5t54 21t36 44t13 75.5q0 74 -40.5 103t-115.5 29h-100v-278h87z" />
    <glyph glyph-name="Q" unicode="Q" horiz-adv-x="760" 
d="M375 -12q-85 0 -147.5 27.5t-103 77t-60 118t-19.5 149.5t22 150t65.5 119.5t108 79t149.5 28.5t146 -28.5t101 -77.5t59 -115t19 -141q0 -91 -22 -161t-69 -122l87 -92l-67 -62l-91 96q-69 -46 -178 -46zM380 83q29 0 56.5 5.5t50.5 19.5l-124 135l67 63l120 -132
q23 37 35 84t12 107q0 69 -15 120t-42.5 84t-66 49.5t-86.5 16.5q-49 0 -89.5 -16.5t-70 -50.5t-45.5 -85.5t-16 -120.5q0 -141 59 -210t155 -69z" />
    <glyph glyph-name="R" unicode="R" horiz-adv-x="639" 
d="M624 0h-127l-156 291h-138v-291h-116v724h262q67 0 112.5 -17t73 -45t39 -64t11.5 -74q0 -81 -37 -130.5t-97 -72.5zM316 385q32 0 59 6t47 21t31 40t11 64q0 64 -40 88t-111 24h-110v-243h113z" />
    <glyph glyph-name="S" unicode="S" horiz-adv-x="599" 
d="M306 642q-72 0 -103 -27t-31 -71q0 -33 16.5 -54t44 -35.5t62 -25t71 -21.5t71 -25.5t62 -37t44 -56t16.5 -82.5q0 -59 -22 -100.5t-58.5 -68t-84 -38.5t-99.5 -12q-54 0 -100.5 10.5t-82 35.5t-58.5 66t-29 103l108 16q6 -28 16 -53t28 -44t47 -30t73 -11q27 0 53 5
t46.5 17.5t33 34t12.5 53.5q0 34 -16.5 55.5t-44 36t-62 24t-71 20t-71 24t-62 36.5t-44 57.5t-16.5 85.5q0 49 19.5 87.5t53 65t79.5 40.5t100 14q48 0 90 -10t75 -34t54.5 -64t26.5 -100l-108 -13q-4 26 -12 49t-23.5 40t-40.5 27t-63 10z" />
    <glyph glyph-name="T" unicode="T" horiz-adv-x="571" 
d="M228 0v626h-217v98h549v-98h-215v-626h-117z" />
    <glyph glyph-name="U" unicode="U" horiz-adv-x="711" 
d="M357 86q42 0 71.5 9.5t48.5 30.5t28 54.5t9 81.5v462h117v-474q0 -68 -19.5 -117.5t-55.5 -81.5t-88 -47.5t-117 -15.5q-143 0 -207 66t-64 199v471h117v-459q0 -95 37.5 -137t122.5 -42z" />
    <glyph glyph-name="V" unicode="V" horiz-adv-x="637" 
d="M245 0l-240 724h131l190 -611h3l184 611h119l-229 -724h-158z" />
    <glyph glyph-name="W" unicode="W" horiz-adv-x="919" 
d="M603 0l-140 557h-2l-141 -557h-149l-158 724h123l115 -594h2l147 594h127l150 -599h2l109 599h117l-153 -724h-149z" />
    <glyph glyph-name="X" unicode="X" horiz-adv-x="635" 
d="M384 369l243 -369h-134l-183 275l-175 -275h-127l236 366l-224 358h130l168 -270l170 270h122z" />
    <glyph glyph-name="Y" unicode="Y" horiz-adv-x="582" 
d="M356 0h-118v277l-248 447h128l180 -336h2l174 336h118l-237 -445z" />
    <glyph glyph-name="Z" unicode="Z" horiz-adv-x="589" 
d="M173 98h380v-98h-522v84l369 542h-359v98h497v-87z" />
    <glyph glyph-name="bracketleft" unicode="[" horiz-adv-x="290" 
d="M61 -143v867h191v-81h-81v-705h81v-81h-191z" />
    <glyph glyph-name="backslash" unicode="\" horiz-adv-x="406" 
d="M294 -92l-280 847h104l281 -847h-105z" />
    <glyph glyph-name="bracketright" unicode="]" horiz-adv-x="290" 
d="M38 -143v81h81v705h-81v81h191v-867h-191z" />
    <glyph glyph-name="asciicircum" unicode="^" horiz-adv-x="616" 
d="M454 299l-148 264l-145 -264h-109l197 365h117l200 -365h-112z" />
    <glyph glyph-name="underscore" unicode="_" horiz-adv-x="500" 
d="M0 -181v86h500v-86h-500z" />
    <glyph glyph-name="grave" unicode="`" horiz-adv-x="500" 
d="M122 746h130l88 -164l-80 -10z" />
    <glyph glyph-name="a" unicode="a" horiz-adv-x="550" 
d="M466 109q0 -21 5.5 -30.5t25.5 -9.5q11 0 31 6l4 -68q-15 -8 -37.5 -12.5t-43.5 -4.5q-41 0 -60.5 15.5t-26.5 45.5q-26 -29 -68 -46t-96 -17q-49 0 -79 14.5t-46.5 36t-22 45.5t-5.5 43q0 50 20 84t54.5 55t80.5 30t98 9q18 0 30 -0.5t23 -1.5v39q0 24 -3.5 42t-13 31
t-27.5 19.5t-46 6.5q-47 0 -67 -20t-28 -60l-101 18q12 73 60.5 111t144.5 38q100 0 147 -41.5t47 -138.5v-239zM354 224q-8 1 -18 1.5t-30 0.5q-22 0 -47 -2.5t-46 -10.5t-35 -25t-14 -45q0 -14 3.5 -26t12 -22t23.5 -15.5t38 -5.5q35 0 65.5 15t47.5 33v102z" />
    <glyph glyph-name="b" unicode="b" horiz-adv-x="586" 
d="M72 0v755h113v-288q33 30 73.5 45.5t93.5 15.5q40 0 74.5 -13.5t60 -44t40 -79.5t14.5 -120q0 -76 -16.5 -129.5t-46 -87.5t-69 -50t-84.5 -16q-48 0 -84 16.5t-62 39.5l-2 -1l-7 -43h-98zM187 128q8 -6 20 -13.5t27 -14.5t32.5 -11.5t36.5 -4.5q63 0 91 48t28 137
q0 81 -25.5 123t-85.5 42q-18 0 -36 -5t-34.5 -13t-30 -18t-23.5 -19v-251z" />
    <glyph glyph-name="c" unicode="c" horiz-adv-x="541" 
d="M285 -12q-64 0 -110 19.5t-75 54.5t-43 83.5t-14 106.5q0 135 67 205.5t189 70.5q86 0 141.5 -48.5t62.5 -140.5l-106 -15q-6 51 -29 81.5t-74 30.5q-25 0 -48.5 -7.5t-42 -26.5t-29.5 -52.5t-11 -84.5q0 -53 10 -88t27 -56t40.5 -30t50.5 -9q48 0 76.5 24.5t37.5 78.5
l100 -20q-6 -47 -26 -80t-49 -55t-66 -32t-79 -10z" />
    <glyph glyph-name="d" unicode="d" horiz-adv-x="583" 
d="M514 0h-96l-8 52h-2q-31 -29 -70 -46.5t-93 -17.5q-45 0 -81.5 14.5t-63 46t-41 81.5t-14.5 120q0 77 18.5 130t48.5 86t69.5 47.5t81.5 14.5q86 0 139 -45v272h112v-755zM399 394q-17 13 -46 26.5t-66 13.5q-34 0 -57.5 -13.5t-38 -37.5t-21 -58t-6.5 -74
q0 -85 27.5 -127.5t90.5 -42.5q33 0 64.5 15.5t52.5 37.5v260z" />
    <glyph glyph-name="e" unicode="e" horiz-adv-x="547" 
d="M287 -12q-70 0 -116.5 22t-75 59.5t-40.5 86.5t-12 102q0 70 19.5 121t53.5 84t78.5 49t95.5 16q56 0 96.5 -17t66 -47.5t37.5 -72.5t12 -92q0 -33 -3 -69h-335q1 -41 11 -69t27 -45.5t40.5 -25.5t51.5 -8q50 0 73.5 22t32.5 62l98 -24q-15 -74 -70.5 -114t-140.5 -40z
M383 310q0 66 -24 96.5t-76 30.5q-22 0 -42 -7t-36 -22t-26.5 -39.5t-12.5 -58.5h217z" />
    <glyph glyph-name="f" unicode="f" horiz-adv-x="342" 
d="M352 664q-15 5 -34 9t-37 4t-32.5 -4t-25 -13.5t-16.5 -27t-6 -44.5v-71h141v-85h-141v-432h-115v432h-74v85h74v74q0 90 45 132t123 42q35 0 62 -6t40 -12z" />
    <glyph glyph-name="g" unicode="g" horiz-adv-x="555" 
d="M271 528q45 0 82 -9t63 -32q14 32 35.5 51.5t50.5 19.5q13 0 21.5 -1t19.5 -5v-85q-24 2 -47 -1t-43 -9q20 -23 30 -52.5t10 -61.5q0 -44 -16.5 -78.5t-45.5 -58t-69 -36t-87 -12.5q-26 0 -47 2t-41 8q-10 -8 -17.5 -18t-7.5 -21q0 -14 10 -23t43 -11l147 -9
q81 -5 126.5 -34.5t45.5 -100.5q0 -51 -22.5 -85t-60 -54.5t-85.5 -29t-100 -8.5q-72 0 -118.5 11t-73.5 29t-37.5 41.5t-10.5 47.5q0 41 25 66.5t61 37.5v3q-29 10 -45 29t-16 49q0 35 22 59.5t51 46.5q-35 20 -55.5 56.5t-20.5 86.5q0 42 15.5 77t44 60.5t70 39.5t93.5 14
zM385 342q0 49 -29.5 73t-81.5 24q-49 0 -81.5 -22.5t-32.5 -72.5q0 -45 26.5 -71t86.5 -26q50 0 81 25t31 70zM416 -72q0 24 -15.5 37.5t-62.5 15.5l-159 8q-20 -14 -31 -30t-11 -37q0 -32 33.5 -46.5t106.5 -14.5q68 0 103.5 16t35.5 51z" />
    <glyph glyph-name="h" unicode="h" horiz-adv-x="583" 
d="M517 0h-115v333q0 49 -19.5 74t-65.5 25q-20 0 -39 -5.5t-36.5 -13.5t-32 -17.5t-23.5 -18.5v-377h-115v755h114v-289q34 27 76.5 44.5t96.5 17.5q84 0 121.5 -44t37.5 -132v-352z" />
    <glyph glyph-name="i" unicode="i" horiz-adv-x="257" 
d="M188 0h-115v517h115v-517zM206 680q0 -37 -19.5 -56.5t-55.5 -19.5q-35 0 -55 19.5t-20 56.5q0 36 20 55.5t55 19.5q36 0 55.5 -19.5t19.5 -55.5z" />
    <glyph glyph-name="j" unicode="j" horiz-adv-x="255" 
d="M25 -223q-31 0 -62 7t-45 16l10 88q15 -6 36 -11.5t42 -5.5q29 0 48 17t19 63v566h115v-573q0 -89 -44 -128t-119 -39zM207 685q0 -36 -20 -56t-55 -20q-36 0 -55.5 20t-19.5 56q0 37 19.5 56.5t55.5 19.5q35 0 55 -19.5t20 -56.5z" />
    <glyph glyph-name="k" unicode="k" horiz-adv-x="544" 
d="M187 308l201 209h129l-176 -186l189 -331h-126l-149 255l-68 -67v-188h-115v755h115v-447z" />
    <glyph glyph-name="l" unicode="l" horiz-adv-x="257" 
d="M188 0h-115v755h115v-755z" />
    <glyph glyph-name="m" unicode="m" horiz-adv-x="861" 
d="M186 0h-115v517h99l4 -53q35 28 76.5 46t92.5 18q50 0 81.5 -15.5t48.5 -51.5q34 29 77 48t96 19q80 0 115 -43.5t35 -131.5v-353h-115v336q0 46 -14.5 71t-57.5 25q-15 0 -32 -4.5t-32.5 -12t-29.5 -16t-23 -17.5q1 -6 1 -13v-14v-355h-115v336q0 46 -14 71t-57 25
q-16 0 -33.5 -5t-34 -12.5t-30.5 -16.5t-23 -18v-380z" />
    <glyph glyph-name="n" unicode="n" horiz-adv-x="583" 
d="M517 0h-115v333q0 49 -19.5 74t-65.5 25q-20 0 -39 -5.5t-36.5 -13.5t-32 -17.5t-23.5 -18.5v-377h-115v517h102l5 -54q35 28 80 46.5t99 18.5q85 0 122.5 -44t37.5 -132v-352z" />
    <glyph glyph-name="o" unicode="o" horiz-adv-x="582" 
d="M287 -12q-68 0 -115 20t-75.5 56t-41 85t-12.5 107q0 62 16 112.5t48.5 86t80.5 54.5t112 19t109.5 -19t74 -53.5t42 -82.5t13.5 -105q0 -64 -14.5 -115.5t-45 -88t-78 -56.5t-114.5 -20zM293 77q60 0 93 42.5t33 142.5q0 48 -8 81.5t-23.5 53.5t-38.5 29t-53 9
q-62 0 -97.5 -40.5t-35.5 -134.5q0 -95 31 -139t99 -44z" />
    <glyph glyph-name="p" unicode="p" horiz-adv-x="585" 
d="M72 517h99l6 -55q71 66 173 66q41 0 76 -13.5t60.5 -44t40 -79.5t14.5 -120q0 -77 -17 -130.5t-46.5 -87.5t-68.5 -49.5t-82 -15.5q-47 0 -82 14t-62 36v-250h-111v729zM186 128q7 -6 19.5 -14t27.5 -15t32.5 -12t36.5 -5q65 0 92 50.5t27 136.5q0 90 -27 127.5t-82 37.5
q-37 0 -71 -17.5t-55 -37.5v-251z" />
    <glyph glyph-name="q" unicode="q" horiz-adv-x="581" 
d="M514 -212h-110v261q-32 -29 -70 -45t-91 -16q-44 0 -80.5 14.5t-62.5 46.5t-40.5 81.5t-14.5 120.5q0 76 18.5 129t49 86t69.5 47.5t81 14.5q45 0 81.5 -13.5t62.5 -39.5l9 42h98v-729zM399 391q-17 14 -47 28.5t-66 14.5q-33 0 -56.5 -13t-38 -37t-21 -57.5t-6.5 -73.5
q0 -83 27 -127.5t91 -44.5q33 0 64.5 16t52.5 37v257z" />
    <glyph glyph-name="r" unicode="r" horiz-adv-x="376" 
d="M367 412q-24 3 -49.5 0.5t-49.5 -9.5t-45 -18.5t-37 -25.5v-359h-115v517h97l9 -77q31 44 71.5 66t97.5 22q5 0 10.5 -0.5t10.5 -0.5v-115z" />
    <glyph glyph-name="s" unicode="s" horiz-adv-x="493" 
d="M252 528q45 0 78.5 -10.5t57 -29.5t38 -46t22.5 -61l-100 -26q-5 19 -11 35t-17 27.5t-28 18t-42 6.5q-48 0 -68.5 -17.5t-20.5 -43.5q0 -36 30.5 -50.5t81.5 -23.5q33 -6 66 -14.5t59.5 -25t42.5 -44t16 -71.5q0 -40 -15.5 -70.5t-43.5 -51.5t-67 -31.5t-87 -10.5
q-187 0 -211 146l98 32q5 -18 12 -35t20 -29.5t33.5 -20t51.5 -7.5q43 0 70 14.5t27 47.5q0 19 -7.5 31.5t-21.5 20t-34 12.5t-45 10q-32 6 -64.5 14.5t-59 25t-43.5 44.5t-17 74q0 40 16 70.5t43 50t63 29.5t77 10z" />
    <glyph glyph-name="t" unicode="t" horiz-adv-x="392" 
d="M383 24q-20 -13 -57.5 -24.5t-79.5 -11.5q-77 0 -115.5 36.5t-38.5 119.5v288h-79v85h79v151l115 16v-167h140v-85h-140v-272q0 -38 13.5 -58t55.5 -20q23 0 47.5 7.5t40.5 16.5z" />
    <glyph glyph-name="u" unicode="u" horiz-adv-x="580" 
d="M70 517h115v-333q0 -49 17.5 -73.5t63.5 -24.5q19 0 38 5t36.5 13t32 17.5t23.5 18.5v377h115v-517h-100l-8 57q-34 -31 -78.5 -49.5t-98.5 -18.5q-81 0 -118.5 43.5t-37.5 131.5v353z" />
    <glyph glyph-name="v" unicode="v" horiz-adv-x="517" 
d="M193 0l-191 517h125l135 -404h2l134 404h117l-189 -517h-133z" />
    <glyph glyph-name="w" unicode="w" horiz-adv-x="781" 
d="M160 0l-158 517h116l113 -398h1l104 398h116l104 -396h1l110 396h112l-158 -517h-132l-97 379h-2l-93 -379h-137z" />
    <glyph glyph-name="x" unicode="x" horiz-adv-x="508" 
d="M317 266l179 -266h-124l-125 185l-119 -185h-114l172 264l-173 253h125l117 -177l121 177h112z" />
    <glyph glyph-name="y" unicode="y" horiz-adv-x="502" 
d="M3 517h124l127 -388h1l127 388h118q-26 -71 -53.5 -146t-55.5 -150t-55 -147.5t-52 -139.5q-16 -43 -33 -73t-38 -48.5t-48 -27t-61 -8.5q-29 0 -58.5 6t-45.5 14l11 86q17 -6 39.5 -11t41.5 -5q26 0 47 15.5t37 55.5l21 54z" />
    <glyph glyph-name="z" unicode="z" horiz-adv-x="462" 
d="M159 94h279v-94h-409v82l269 345h-265v90h393v-83z" />
    <glyph glyph-name="braceleft" unicode="{" horiz-adv-x="318" 
d="M286 -145h-62q-75 0 -110 31t-35 91q0 47 7 96t7 100q0 43 -18 62t-52 19h-20v76h19q71 0 71 80q0 25 -2 52.5t-5 54.5t-5 52t-2 46q0 63 36.5 92.5t107.5 29.5h63v-83h-31q-32 0 -43.5 -13t-11.5 -38q0 -22 2 -47t5 -51t5 -52t2 -50q0 -27 -6 -45.5t-16.5 -31
t-24.5 -20.5t-31 -14q17 -6 31 -14.5t24.5 -21t16.5 -31t6 -45.5q0 -48 -7 -96.5t-7 -90.5q0 -26 12.5 -41.5t50.5 -15.5h23v-81z" />
    <glyph glyph-name="bar" unicode="|" horiz-adv-x="280" 
d="M88 -143v898h104v-898h-104z" />
    <glyph glyph-name="braceright" unicode="}" horiz-adv-x="318" 
d="M32 737h62q75 0 110 -31t35 -91q0 -47 -7 -96t-7 -100q0 -43 18 -62t52 -19h20v-76h-19q-71 0 -71 -80q0 -26 2 -53t5 -54t5 -52t2 -46q0 -63 -36.5 -92.5t-107.5 -29.5h-63v83h31q32 0 43.5 13t11.5 38q0 22 -2 47t-5 51t-5 52t-2 50q0 27 6 45.5t16.5 31t24.5 20.5
t31 14q-17 6 -31 14.5t-24.5 21t-16.5 31t-6 45.5q0 48 7 96.5t7 90.5q0 26 -12.5 41.5t-50.5 15.5h-23v81z" />
    <glyph glyph-name="asciitilde" unicode="~" horiz-adv-x="550" 
d="M153 432q24 0 58 -7t68.5 -15.5t64.5 -15.5t47 -7q18 0 26.5 9.5t8.5 38.5l67 -3q8 -62 -17.5 -97t-73.5 -35q-24 0 -58.5 7t-69.5 15.5t-66 15.5t-47 7q-17 0 -26 -10.5t-7 -41.5l-70 3q-8 65 19.5 100.5t75.5 35.5z" />
    <glyph glyph-name="uni00A0" unicode="&#xa0;" horiz-adv-x="198" 
 />
    <glyph glyph-name="exclamdown" unicode="&#xa1;" horiz-adv-x="276" 
d="M189 324l18 -533h-126l17 533h91zM68 457q0 70 75 70q76 0 76 -70q0 -71 -76 -71q-75 0 -75 71z" />
    <glyph glyph-name="cent" unicode="&#xa2;" horiz-adv-x="524" 
d="M328 705v-102q33 -5 61 -18.5t49.5 -35t34.5 -51t16 -66.5l-103 -15q-5 39 -18.5 62t-39.5 31v-309q28 8 43 29.5t23 59.5l96 -18q-11 -73 -55 -113.5t-107 -50.5v-108h-84v108q-46 7 -81.5 28t-60 52.5t-37 72.5t-12.5 89q0 108 52.5 171t138.5 80v104h84zM171 362
q0 -63 15.5 -104t57.5 -55v304q-32 -11 -52.5 -44.5t-20.5 -100.5z" />
    <glyph glyph-name="sterling" unicode="&#xa3;" horiz-adv-x="574" 
d="M78 93q38 35 56.5 69t18.5 75q0 40 -21 81h-101v88h72q-12 23 -27 56.5t-15 77.5q0 43 17 79.5t48 62.5t74.5 40.5t96.5 14.5q97 0 152 -43.5t69 -144.5l-103 -16q-4 25 -11 46t-20 36t-34 23t-53 8q-54 0 -86.5 -24.5t-32.5 -78.5q0 -38 15 -73.5t29 -63.5h212v-88h-185
q16 -40 16 -76q0 -42 -16 -78t-52 -71h143q30 0 50 6.5t33.5 20t21 34t12.5 48.5l98 -18q-10 -94 -59.5 -139t-147.5 -45h-328v93h58z" />
    <glyph glyph-name="currency" unicode="&#xa4;" 
d="M491 1l-89 89q-52 -35 -126 -35q-41 0 -73 9.5t-57 26.5q-4 -5 -17.5 -18t-28.5 -28t-27.5 -28t-15.5 -16l-65 68l93 92q-14 26 -21 57t-7 63q0 29 7.5 57.5t21.5 54.5l-91 90l69 70l87 -87q53 39 131 39q80 0 131 -36l83 83l65 -68l-87 -87q27 -50 27 -112q0 -33 -8 -65
t-25 -59l92 -91zM280 145q59 0 89 39.5t30 96.5q0 62 -30 97.5t-91 35.5q-60 0 -89.5 -37.5t-29.5 -95.5q0 -29 7 -53.5t21.5 -43t37.5 -29t55 -10.5z" />
    <glyph glyph-name="yen" unicode="&#xa5;" horiz-adv-x="548" 
d="M372 428h95v-84h-131v-83h131v-84h-131v-177h-115v177h-131v84h131v83h-131v84h91l-163 296h125l137 -262h2l132 262h117z" />
    <glyph glyph-name="brokenbar" unicode="&#xa6;" horiz-adv-x="280" 
d="M88 -143v388h104v-388h-104zM88 414v341h104v-341h-104z" />
    <glyph glyph-name="section" unicode="&#xa7;" horiz-adv-x="556" 
d="M45 243q0 45 24 81.5t69 65.5q-26 21 -43 52.5t-17 79.5q0 45 17.5 80t48 59t71 36t85.5 12q88 0 145.5 -43.5t65.5 -138.5l-106 -14q-5 52 -28.5 81.5t-79.5 29.5q-52 0 -79.5 -24t-27.5 -63t24.5 -60.5t61 -35t79 -24.5t79 -29.5t61 -50t24.5 -85.5q0 -43 -25 -81
t-68 -67q26 -21 43.5 -52.5t17.5 -78.5q0 -45 -17.5 -80t-48 -59t-71 -36t-86.5 -12q-92 0 -148 45.5t-63 140.5l103 13q5 -52 30 -81t82 -29q51 0 77.5 23t26.5 63q0 39 -24 59t-60.5 32.5t-79 22.5t-79 28t-60.5 50.5t-24 89.5zM154 266q0 -30 18 -48t46.5 -29.5
t63.5 -20.5t70 -22q54 34 54 86q0 29 -18 46t-46 28t-63.5 20t-69.5 23q-26 -17 -40.5 -37.5t-14.5 -45.5z" />
    <glyph glyph-name="dieresis" unicode="&#xa8;" horiz-adv-x="500" 
d="M214 675q0 -33 -20.5 -52t-52.5 -19q-33 0 -53.5 19t-20.5 52q0 32 20.5 51t53.5 19q32 0 52.5 -19t20.5 -51zM434 675q0 -33 -20.5 -52t-52.5 -19q-34 0 -54 19t-20 52q0 32 20 51t54 19q32 0 52.5 -19t20.5 -51z" />
    <glyph glyph-name="copyright" unicode="&#xa9;" horiz-adv-x="784" 
d="M734 332q0 -77 -25 -140.5t-70 -108.5t-108.5 -70t-139.5 -25q-85 0 -149 25t-107 69.5t-64.5 104.5t-21.5 130q0 81 27 144.5t73.5 107.5t109.5 67.5t134 23.5q79 0 142.5 -23.5t107.5 -66t67.5 -103t23.5 -135.5zM393 52q63 0 113.5 19t86 54.5t54 86t18.5 114.5
q0 66 -20 116.5t-56 84.5t-86 51.5t-110 17.5q-59 0 -108.5 -18.5t-86.5 -54.5t-57.5 -87.5t-20.5 -117.5q0 -125 72 -195.5t201 -70.5zM552 260q-5 -39 -21.5 -64t-39 -39.5t-47.5 -20t-47 -5.5q-48 0 -82.5 14.5t-56 41t-31.5 62t-10 77.5t12 78t35 61.5t57 40t78 14.5
q29 0 55 -7t46.5 -23t33 -40.5t14.5 -59.5l-65 -8q-7 80 -86 80q-22 0 -41.5 -7.5t-34 -24t-23 -42.5t-8.5 -64q0 -27 5.5 -51.5t18.5 -43t32.5 -29.5t48.5 -11q46 0 67 21.5t29 59.5z" />
    <glyph glyph-name="ordfeminine" unicode="&#xaa;" horiz-adv-x="385" 
d="M326 364q0 -20 8.5 -24.5t26.5 -1.5l3 -53q-11 -5 -25 -8.5t-29 -3.5q-29 0 -46.5 12.5t-20.5 29.5q-17 -19 -43.5 -31t-63.5 -12q-33 0 -53 10t-31.5 24.5t-15 30.5t-3.5 29q0 36 15.5 58t40.5 34t54.5 16t58.5 4h17.5t16.5 -1v17q0 29 -10 45.5t-45 16.5
q-29 0 -41.5 -11.5t-17.5 -37.5l-77 13q8 48 41.5 75.5t102.5 27.5t103 -27t34 -90v-142zM237 421q-6 1 -14 1h-16q-14 0 -28 -2t-25.5 -7t-19 -14t-7.5 -23t8 -26t35 -12q20 0 38 8t29 18v57z" />
    <glyph glyph-name="guillemotleft" unicode="&#xab;" horiz-adv-x="447" 
d="M136 103l-87 155l89 150h98l-86 -147l83 -158h-97zM306 103l-87 155l89 150h98l-86 -147l83 -158h-97z" />
    <glyph glyph-name="logicalnot" unicode="&#xac;" 
d="M379 182v94h-288v98h381v-192h-93z" />
    <glyph glyph-name="uni00AD" unicode="&#xad;" horiz-adv-x="311" 
d="M20 242v103h271v-103h-271z" />
    <glyph glyph-name="registered" unicode="&#xae;" horiz-adv-x="457" 
d="M417 477q0 -42 -14 -77t-38.5 -60t-59.5 -38.5t-77 -13.5q-47 0 -82 14t-58.5 38t-35.5 57t-12 72q0 44 15 79.5t40.5 60t60 37.5t73.5 13q88 0 138 -49.5t50 -132.5zM372 474q0 70 -40.5 106t-102.5 36q-30 0 -56 -10t-45.5 -28.5t-30.5 -45.5t-11 -61q0 -66 38.5 -103
t104.5 -37t104.5 38t38.5 105zM320 383h-46l-44 73h-22v-73h-42v190h69q41 0 55 -16.5t14 -38.5q0 -20 -10 -31.5t-25 -18.5zM222 488q17 0 27.5 5.5t10.5 22.5q0 15 -9.5 20t-23.5 5h-19v-53h14z" />
    <glyph glyph-name="macron" unicode="&#xaf;" horiz-adv-x="500" 
d="M100 616v83h299v-83h-299z" />
    <glyph glyph-name="degree" unicode="&#xb0;" horiz-adv-x="291" 
d="M146 579q24 0 38 15.5t14 40.5q0 26 -14.5 40.5t-37.5 14.5t-38 -15t-15 -43q0 -24 14 -38.5t39 -14.5zM260 635q0 -53 -31.5 -84t-82.5 -31q-52 0 -83.5 30.5t-31.5 81.5q0 56 33.5 86t81.5 30q49 0 81.5 -29.5t32.5 -83.5z" />
    <glyph glyph-name="plusminus" unicode="&#xb1;" 
d="M94 0v97h381v-97h-381zM235 139v135h-141v97h141v145h98v-145h142v-97h-142v-135h-98z" />
    <glyph glyph-name="uni00B2" unicode="&#xb2;" horiz-adv-x="393" 
d="M199 805q72 0 108 -31t36 -85q0 -26 -7.5 -48.5t-23 -45t-38.5 -46.5t-54 -53l-54 -59v-3h184v-85h-302v84l100 107q25 26 42.5 46t28.5 36t16 30.5t5 30.5q0 24 -13.5 34.5t-36.5 10.5q-29 0 -43 -16.5t-19 -47.5l-88 13q8 68 52.5 98t106.5 30z" />
    <glyph glyph-name="uni00B3" unicode="&#xb3;" horiz-adv-x="384" 
d="M121 474q5 -28 18.5 -42t44.5 -14q27 0 45.5 15t18.5 48q0 35 -18.5 49t-53.5 14h-47v70h30q41 0 62 19t21 49q0 21 -11 34t-40 13t-42.5 -13.5t-19.5 -39.5l-87 17q6 32 21.5 53.5t36.5 34.5t47 18.5t54 5.5q69 0 105.5 -28t36.5 -79q0 -24 -7.5 -41.5t-20 -30.5
t-28 -22t-31.5 -14v-2q47 -10 71.5 -36t24.5 -74q0 -64 -46.5 -100t-119.5 -36q-28 0 -54 6t-47 19.5t-35.5 35.5t-18.5 55z" />
    <glyph glyph-name="acute" unicode="&#xb4;" horiz-adv-x="500" 
d="M240 572l-80 10l88 164h130z" />
    <glyph glyph-name="mu" unicode="&#xb5;" horiz-adv-x="629" 
d="M93 517h115v-333q0 -53 14.5 -77t56.5 -24q21 0 40.5 6.5t36.5 16t32 21.5t26 24v366h115v-517h-98l-4 62h-2q-30 -28 -69.5 -48.5t-83.5 -20.5q-35 0 -68 16l-2 -1l9 -184h-118v693z" />
    <glyph glyph-name="paragraph" unicode="&#xb6;" horiz-adv-x="578" 
d="M495 -133h-89v779h-75v-779h-89v380q-103 8 -157.5 68t-54.5 162q0 68 22 115t60 76.5t89 42.5t108 13h185z" />
    <glyph glyph-name="periodcentered" unicode="&#xb7;" horiz-adv-x="212" 
d="M180 306q0 -70 -74 -70t-74 70t74 70t74 -70z" />
    <glyph glyph-name="cedilla" unicode="&#xb8;" horiz-adv-x="500" 
d="M151 -155q11 -5 24 -8t28 -3q50 0 50 41q0 24 -17 33t-53 10l16 112l63 -8l-9 -60q16 -3 30.5 -9t25.5 -16.5t18 -26t7 -37.5q0 -50 -33.5 -77.5t-84.5 -27.5q-26 0 -47 5.5t-35 12.5z" />
    <glyph glyph-name="uni00B9" unicode="&#xb9;" horiz-adv-x="305" 
d="M135 347v334q-8 -4 -21.5 -7t-28 -5.5t-28 -4t-21.5 -1.5l-5 80q43 3 78 15.5t58 36.5h71v-448h-103z" />
    <glyph glyph-name="ordmasculine" unicode="&#xba;" horiz-adv-x="406" 
d="M199 272q-46 0 -78 13t-52.5 36.5t-29.5 55.5t-9 70q0 81 44 128.5t135 47.5q45 0 76.5 -12.5t51.5 -35t29 -53.5t9 -68q0 -41 -10 -74.5t-31 -57.5t-54.5 -37t-80.5 -13zM202 346q36 0 56.5 23.5t20.5 80.5t-18 78.5t-55 21.5q-38 0 -58.5 -24t-20.5 -77t17 -78t58 -25z
" />
    <glyph glyph-name="guillemotright" unicode="&#xbb;" horiz-adv-x="447" 
d="M140 408l88 -154l-87 -151h-98l84 151l-85 154h98zM310 408l88 -154l-87 -151h-98l84 151l-85 154h98z" />
    <glyph glyph-name="onequarter" unicode="&#xbc;" horiz-adv-x="945" 
d="M218 -12l356 736h105l-354 -736h-107zM158 279v334q-8 -4 -21.5 -7t-28 -5.5t-28 -4t-21.5 -1.5l-5 80q43 3 78 15.5t58 36.5h71v-448h-103zM738 0v98h-208v70l183 280h125v-271h52v-79h-52v-98h-100zM739 177v183l-120 -183h120z" />
    <glyph glyph-name="onehalf" unicode="&#xbd;" horiz-adv-x="945" 
d="M208 -12l356 736h105l-354 -736h-107zM164 279v334q-8 -4 -21.5 -7t-28 -5.5t-28 -4t-21.5 -1.5l-5 80q43 3 78 15.5t58 36.5h71v-448h-103zM735 456q72 0 108 -31t36 -85q0 -26 -7.5 -48.5t-23 -45t-38.5 -46.5t-54 -53l-54 -59v-3h184v-85h-302v84l100 107
q25 26 42.5 46t28.5 36t16 30.5t5 30.5q0 24 -13.5 34.5t-36.5 10.5q-29 0 -43 -16.5t-19 -47.5l-88 13q8 68 52.5 98t106.5 30z" />
    <glyph glyph-name="threequarters" unicode="&#xbe;" horiz-adv-x="945" 
d="M252 -12l356 736h105l-354 -736h-107zM756 0v98h-208v70l183 280h125v-271h52v-79h-52v-98h-100zM757 177v183l-120 -183h120zM135 406q5 -28 18.5 -42t44.5 -14q27 0 45.5 15t18.5 48q0 35 -18.5 49t-53.5 14h-47v70h30q41 0 62 19t21 49q0 21 -11 34t-40 13
t-42.5 -13.5t-19.5 -39.5l-87 17q6 32 21.5 53.5t36.5 34.5t47 18.5t54 5.5q69 0 105.5 -28t36.5 -79q0 -24 -7.5 -41.5t-20 -30.5t-28 -22t-31.5 -14v-2q47 -10 71.5 -36t24.5 -74q0 -64 -46.5 -100t-119.5 -36q-28 0 -54 6t-47 19.5t-35.5 35.5t-18.5 55z" />
    <glyph glyph-name="questiondown" unicode="&#xbf;" horiz-adv-x="502" 
d="M355 324v-180q-39 -3 -75.5 -11.5t-65.5 -25.5t-46.5 -44.5t-17.5 -69.5q0 -59 31 -83t78 -24q49 0 80.5 24t43.5 86l109 -18q-6 -40 -23 -75t-46 -61.5t-71.5 -41.5t-99.5 -15q-44 0 -84 10t-71 33.5t-49.5 62.5t-18.5 97q0 50 15.5 88.5t44 66t67.5 46t87 28.5v107h112
zM225 457q0 70 76 70t76 -70q0 -71 -76 -71t-76 71z" />
    <glyph glyph-name="Agrave" unicode="&#xc0;" horiz-adv-x="696" 
d="M417 724l254 -724h-128l-68 198h-263l-66 -198h-119l241 724h149zM343 616h-2l-106 -320h213zM196 915h131l95 -137l-84 -11z" />
    <glyph glyph-name="Aacute" unicode="&#xc1;" horiz-adv-x="696" 
d="M417 724l254 -724h-128l-68 198h-263l-66 -198h-119l241 724h149zM343 616h-2l-106 -320h213zM348 767l-84 11l96 137h130z" />
    <glyph glyph-name="Acircumflex" unicode="&#xc2;" horiz-adv-x="696" 
d="M417 724l254 -724h-128l-68 198h-263l-66 -198h-119l241 724h149zM343 616h-2l-106 -320h213zM344 845l-81 -78l-82 9l112 133h103l110 -133l-83 -7z" />
    <glyph glyph-name="Atilde" unicode="&#xc3;" horiz-adv-x="696" 
d="M417 724l254 -724h-128l-68 198h-263l-66 -198h-119l241 724h149zM343 616h-2l-106 -320h213zM268 915q24 0 44 -7t38 -15.5t34.5 -15.5t33.5 -7q18 0 26 9.5t8 38.5l64 -3q8 -62 -16.5 -95.5t-70.5 -33.5q-24 0 -45 7t-39.5 15.5t-35.5 15.5t-33 7q-17 0 -26 -10t-7 -41
l-66 3q-8 65 19.5 98.5t71.5 33.5z" />
    <glyph glyph-name="Adieresis" unicode="&#xc4;" horiz-adv-x="696" 
d="M417 724l254 -724h-128l-68 198h-263l-66 -198h-119l241 724h149zM343 616h-2l-106 -320h213zM307 848q0 -33 -20.5 -51.5t-52.5 -18.5q-33 0 -53.5 18.5t-20.5 51.5q0 32 20.5 51t53.5 19q32 0 52.5 -19t20.5 -51zM527 848q0 -33 -20.5 -51.5t-52.5 -18.5
q-34 0 -54 18.5t-20 51.5q0 32 20 51t54 19q32 0 52.5 -19t20.5 -51z" />
    <glyph glyph-name="Aring" unicode="&#xc5;" horiz-adv-x="696" 
d="M459 801q0 -57 -39 -87l251 -714h-128l-68 198h-263l-66 -198h-119l238 716q-36 28 -36 81q0 28 9.5 49t25 34.5t36.5 20.5t44 7q24 0 44.5 -6.5t36.5 -19.5t25 -33.5t9 -47.5zM343 616h-2l-106 -320h213zM343 749q26 0 39 14t13 40q0 25 -13.5 37.5t-37.5 12.5
q-23 0 -38 -13.5t-15 -39.5q0 -25 14 -38t38 -13z" />
    <glyph glyph-name="AE" unicode="&#xc6;" horiz-adv-x="1001" 
d="M621 98h335v-98h-453v305h-201l-159 -305h-120l378 724h540v-98h-320v-223h301v-96h-301v-209zM503 626h-41l-121 -226h162v226z" />
    <glyph glyph-name="Ccedilla" unicode="&#xc7;" horiz-adv-x="693" 
d="M291 -155q11 -5 24 -8t28 -3q50 0 50 41q0 24 -17 33t-53 10l10 72q-77 5 -132 33t-89.5 75.5t-50.5 111.5t-16 142q0 89 23 160.5t67 121.5t107.5 76.5t144.5 26.5q58 0 107 -15t85 -46t58 -79t26 -113l-108 -10q-9 82 -48.5 122t-120.5 40q-103 0 -162 -67t-59 -209
q0 -74 14 -125.5t41 -84.5t66 -48t90 -15q81 0 122 37.5t57 106.5l104 -20q-9 -57 -34.5 -98t-61 -67.5t-78.5 -40t-88 -16.5l-4 -27q16 -3 30.5 -9t25.5 -16.5t18 -26t7 -37.5q0 -50 -33.5 -77.5t-84.5 -27.5q-26 0 -47 5.5t-35 12.5z" />
    <glyph glyph-name="Egrave" unicode="&#xc8;" horiz-adv-x="578" 
d="M204 98h336v-98h-453v724h438v-98h-321v-214h301v-97h-301v-217zM160 915h131l95 -137l-84 -11z" />
    <glyph glyph-name="Eacute" unicode="&#xc9;" horiz-adv-x="578" 
d="M204 98h336v-98h-453v724h438v-98h-321v-214h301v-97h-301v-217zM320 767l-84 11l96 137h130z" />
    <glyph glyph-name="Ecircumflex" unicode="&#xca;" horiz-adv-x="578" 
d="M204 98h336v-98h-453v724h438v-98h-321v-214h301v-97h-301v-217zM308 845l-81 -78l-82 9l112 133h103l110 -133l-83 -7z" />
    <glyph glyph-name="Edieresis" unicode="&#xcb;" horiz-adv-x="578" 
d="M204 98h336v-98h-453v724h438v-98h-321v-214h301v-97h-301v-217zM271 848q0 -33 -20.5 -51.5t-52.5 -18.5q-33 0 -53.5 18.5t-20.5 51.5q0 32 20.5 51t53.5 19q32 0 52.5 -19t20.5 -51zM491 848q0 -33 -20.5 -51.5t-52.5 -18.5q-34 0 -54 18.5t-20 51.5q0 32 20 51t54 19
q32 0 52.5 -19t20.5 -51z" />
    <glyph glyph-name="Igrave" unicode="&#xcc;" horiz-adv-x="291" 
d="M204 0h-117v724h117v-724zM-2 915h131l95 -137l-84 -11z" />
    <glyph glyph-name="Iacute" unicode="&#xcd;" horiz-adv-x="291" 
d="M204 0h-117v724h117v-724zM150 767l-84 11l96 137h130z" />
    <glyph glyph-name="Icircumflex" unicode="&#xce;" horiz-adv-x="291" 
d="M204 0h-117v724h117v-724zM146 845l-81 -78l-82 9l112 133h103l110 -133l-83 -7z" />
    <glyph glyph-name="Idieresis" unicode="&#xcf;" horiz-adv-x="291" 
d="M204 0h-117v724h117v-724zM109 848q0 -33 -20.5 -51.5t-52.5 -18.5q-33 0 -53.5 18.5t-20.5 51.5q0 32 20.5 51t53.5 19q32 0 52.5 -19t20.5 -51zM329 848q0 -33 -20.5 -51.5t-52.5 -18.5q-34 0 -54 18.5t-20 51.5q0 32 20 51t54 19q32 0 52.5 -19t20.5 -51z" />
    <glyph glyph-name="Eth" unicode="&#xd0;" horiz-adv-x="726" 
d="M87 0v327h-73v91h73v306h235q94 0 162 -24.5t111.5 -70t64.5 -110.5t21 -146q0 -83 -22.5 -152t-68.5 -118t-117 -76t-168 -27h-218zM304 95q67 0 115.5 18t80 52.5t46.5 84t15 112.5q0 77 -16.5 128.5t-48 82t-77.5 43.5t-106 13h-109v-211h196v-91h-196v-232h100z" />
    <glyph glyph-name="Ntilde" unicode="&#xd1;" horiz-adv-x="745" 
d="M520 0l-325 569v-569h-108v724h147l317 -566v566h107v-724h-138zM306 915q24 0 44 -7t38 -15.5t34.5 -15.5t33.5 -7q18 0 26 9.5t8 38.5l64 -3q8 -62 -16.5 -95.5t-70.5 -33.5q-24 0 -45 7t-39.5 15.5t-35.5 15.5t-33 7q-17 0 -26 -10t-7 -41l-66 3q-8 65 19.5 98.5
t71.5 33.5z" />
    <glyph glyph-name="Ograve" unicode="&#xd2;" horiz-adv-x="760" 
d="M375 -12q-86 0 -148.5 27.5t-103 77t-59.5 118t-19 149.5t22 150t65.5 119.5t108 79t149.5 28.5t146 -28.5t101 -77.5t59 -115t19 -141q0 -88 -21 -159.5t-63.5 -122t-106.5 -78t-149 -27.5zM380 88q47 0 86.5 16t68 49.5t44.5 86t16 125.5q0 138 -56.5 204t-151.5 66
q-49 0 -89.5 -16.5t-70 -50.5t-45.5 -85.5t-16 -120.5q0 -71 15.5 -122.5t43.5 -85t67.5 -50t87.5 -16.5zM250 915h131l95 -137l-84 -11z" />
    <glyph glyph-name="Oacute" unicode="&#xd3;" horiz-adv-x="760" 
d="M375 -12q-86 0 -148.5 27.5t-103 77t-59.5 118t-19 149.5t22 150t65.5 119.5t108 79t149.5 28.5t146 -28.5t101 -77.5t59 -115t19 -141q0 -88 -21 -159.5t-63.5 -122t-106.5 -78t-149 -27.5zM380 88q47 0 86.5 16t68 49.5t44.5 86t16 125.5q0 138 -56.5 204t-151.5 66
q-49 0 -89.5 -16.5t-70 -50.5t-45.5 -85.5t-16 -120.5q0 -71 15.5 -122.5t43.5 -85t67.5 -50t87.5 -16.5zM384 767l-84 11l96 137h130z" />
    <glyph glyph-name="Ocircumflex" unicode="&#xd4;" horiz-adv-x="760" 
d="M375 -12q-86 0 -148.5 27.5t-103 77t-59.5 118t-19 149.5t22 150t65.5 119.5t108 79t149.5 28.5t146 -28.5t101 -77.5t59 -115t19 -141q0 -88 -21 -159.5t-63.5 -122t-106.5 -78t-149 -27.5zM380 88q47 0 86.5 16t68 49.5t44.5 86t16 125.5q0 138 -56.5 204t-151.5 66
q-49 0 -89.5 -16.5t-70 -50.5t-45.5 -85.5t-16 -120.5q0 -71 15.5 -122.5t43.5 -85t67.5 -50t87.5 -16.5zM389 845l-81 -78l-82 9l112 133h103l110 -133l-83 -7z" />
    <glyph glyph-name="Otilde" unicode="&#xd5;" horiz-adv-x="760" 
d="M375 -12q-86 0 -148.5 27.5t-103 77t-59.5 118t-19 149.5t22 150t65.5 119.5t108 79t149.5 28.5t146 -28.5t101 -77.5t59 -115t19 -141q0 -88 -21 -159.5t-63.5 -122t-106.5 -78t-149 -27.5zM380 88q47 0 86.5 16t68 49.5t44.5 86t16 125.5q0 138 -56.5 204t-151.5 66
q-49 0 -89.5 -16.5t-70 -50.5t-45.5 -85.5t-16 -120.5q0 -71 15.5 -122.5t43.5 -85t67.5 -50t87.5 -16.5zM313 915q24 0 44 -7t38 -15.5t34.5 -15.5t33.5 -7q18 0 26 9.5t8 38.5l64 -3q8 -62 -16.5 -95.5t-70.5 -33.5q-24 0 -45 7t-39.5 15.5t-35.5 15.5t-33 7
q-17 0 -26 -10t-7 -41l-66 3q-8 65 19.5 98.5t71.5 33.5z" />
    <glyph glyph-name="Odieresis" unicode="&#xd6;" horiz-adv-x="760" 
d="M375 -12q-86 0 -148.5 27.5t-103 77t-59.5 118t-19 149.5t22 150t65.5 119.5t108 79t149.5 28.5t146 -28.5t101 -77.5t59 -115t19 -141q0 -88 -21 -159.5t-63.5 -122t-106.5 -78t-149 -27.5zM380 88q47 0 86.5 16t68 49.5t44.5 86t16 125.5q0 138 -56.5 204t-151.5 66
q-49 0 -89.5 -16.5t-70 -50.5t-45.5 -85.5t-16 -120.5q0 -71 15.5 -122.5t43.5 -85t67.5 -50t87.5 -16.5zM352 848q0 -33 -20.5 -51.5t-52.5 -18.5q-33 0 -53.5 18.5t-20.5 51.5q0 32 20.5 51t53.5 19q32 0 52.5 -19t20.5 -51zM572 848q0 -33 -20.5 -51.5t-52.5 -18.5
q-34 0 -54 18.5t-20 51.5q0 32 20 51t54 19q32 0 52.5 -19t20.5 -51z" />
    <glyph glyph-name="multiply" unicode="&#xd7;" 
d="M284 250l-102 -103l-69 71l103 103l-103 103l69 71l102 -103l103 103l69 -71l-103 -103l103 -103l-69 -71z" />
    <glyph glyph-name="Oslash" unicode="&#xd8;" horiz-adv-x="760" 
d="M375 -12q-48 0 -90 9l-28 -69h-113l45 107q-75 47 -109.5 131.5t-34.5 193.5q0 81 22 150t65.5 119.5t108 79t149.5 28.5q23 0 45 -2.5t42 -7.5l28 67h112l-44 -106q73 -47 107.5 -129.5t34.5 -183.5q0 -88 -21 -159.5t-63.5 -122t-106.5 -78t-149 -27.5zM380 88
q47 0 86.5 16t68 49.5t44.5 86t16 125.5q0 75 -17.5 128.5t-49.5 86.5l-202 -486q25 -6 54 -6zM166 362q0 -77 18 -131t50 -87l202 486q-25 5 -49 5q-49 0 -89.5 -16.5t-70 -50.5t-45.5 -85.5t-16 -120.5z" />
    <glyph glyph-name="Ugrave" unicode="&#xd9;" horiz-adv-x="711" 
d="M357 86q42 0 71.5 9.5t48.5 30.5t28 54.5t9 81.5v462h117v-474q0 -68 -19.5 -117.5t-55.5 -81.5t-88 -47.5t-117 -15.5q-143 0 -207 66t-64 199v471h117v-459q0 -95 37.5 -137t122.5 -42zM209 915h131l95 -137l-84 -11z" />
    <glyph glyph-name="Uacute" unicode="&#xda;" horiz-adv-x="711" 
d="M357 86q42 0 71.5 9.5t48.5 30.5t28 54.5t9 81.5v462h117v-474q0 -68 -19.5 -117.5t-55.5 -81.5t-88 -47.5t-117 -15.5q-143 0 -207 66t-64 199v471h117v-459q0 -95 37.5 -137t122.5 -42zM371 767l-84 11l96 137h130z" />
    <glyph glyph-name="Ucircumflex" unicode="&#xdb;" horiz-adv-x="711" 
d="M357 86q42 0 71.5 9.5t48.5 30.5t28 54.5t9 81.5v462h117v-474q0 -68 -19.5 -117.5t-55.5 -81.5t-88 -47.5t-117 -15.5q-143 0 -207 66t-64 199v471h117v-459q0 -95 37.5 -137t122.5 -42zM356 845l-81 -78l-82 9l112 133h103l110 -133l-83 -7z" />
    <glyph glyph-name="Udieresis" unicode="&#xdc;" horiz-adv-x="711" 
d="M357 86q42 0 71.5 9.5t48.5 30.5t28 54.5t9 81.5v462h117v-474q0 -68 -19.5 -117.5t-55.5 -81.5t-88 -47.5t-117 -15.5q-143 0 -207 66t-64 199v471h117v-459q0 -95 37.5 -137t122.5 -42zM319 848q0 -33 -20.5 -51.5t-52.5 -18.5q-33 0 -53.5 18.5t-20.5 51.5
q0 32 20.5 51t53.5 19q32 0 52.5 -19t20.5 -51zM539 848q0 -33 -20.5 -51.5t-52.5 -18.5q-34 0 -54 18.5t-20 51.5q0 32 20 51t54 19q32 0 52.5 -19t20.5 -51z" />
    <glyph glyph-name="Yacute" unicode="&#xdd;" horiz-adv-x="582" 
d="M356 0h-118v277l-248 447h128l180 -336h2l174 336h118l-237 -445zM300 767l-84 11l96 137h130z" />
    <glyph glyph-name="Thorn" unicode="&#xde;" horiz-adv-x="618" 
d="M203 0h-116v724h118v-122h134q69 0 115.5 -18t74.5 -48t39.5 -69t11.5 -80q0 -128 -72.5 -187t-207.5 -59h-97v-141zM290 238q35 0 66 5t54 20t36 43t13 73q0 71 -40.5 99t-115.5 28h-100v-268h87z" />
    <glyph glyph-name="germandbls" unicode="&#xdf;" horiz-adv-x="660" 
d="M71 0v528q0 66 19 112t52 74t79 40.5t100 12.5q113 0 173 -48t60 -137q0 -36 -10 -63.5t-26 -48t-36.5 -34t-41.5 -21.5v-4q36 -7 68 -20t55.5 -37t37.5 -59.5t14 -87.5q0 -46 -13.5 -85.5t-40 -69t-66.5 -46.5t-94 -17q-43 0 -74.5 10.5t-53 27.5t-35.5 40t-21 49l87 37
q6 -15 13.5 -28.5t18.5 -24t26 -17t36 -6.5q48 0 73.5 31.5t25.5 100.5q0 43 -13 71t-35.5 45t-52 24t-63.5 7h-39v83h16q36 0 60.5 10.5t39.5 27.5t21.5 39t6.5 46q0 65 -32.5 92.5t-88.5 27.5q-30 0 -54.5 -6.5t-41.5 -24t-26 -47t-9 -74.5v-530h-115z" />
    <glyph glyph-name="agrave" unicode="&#xe0;" horiz-adv-x="550" 
d="M466 109q0 -21 5.5 -30.5t25.5 -9.5q11 0 31 6l4 -68q-15 -8 -37.5 -12.5t-43.5 -4.5q-41 0 -60.5 15.5t-26.5 45.5q-26 -29 -68 -46t-96 -17q-49 0 -79 14.5t-46.5 36t-22 45.5t-5.5 43q0 50 20 84t54.5 55t80.5 30t98 9q18 0 30 -0.5t23 -1.5v39q0 24 -3.5 42t-13 31
t-27.5 19.5t-46 6.5q-47 0 -67 -20t-28 -60l-101 18q12 73 60.5 111t144.5 38q100 0 147 -41.5t47 -138.5v-239zM354 224q-8 1 -18 1.5t-30 0.5q-22 0 -47 -2.5t-46 -10.5t-35 -25t-14 -45q0 -14 3.5 -26t12 -22t23.5 -15.5t38 -5.5q35 0 65.5 15t47.5 33v102zM143 746h130
l88 -164l-80 -10z" />
    <glyph glyph-name="aacute" unicode="&#xe1;" horiz-adv-x="550" 
d="M466 109q0 -21 5.5 -30.5t25.5 -9.5q11 0 31 6l4 -68q-15 -8 -37.5 -12.5t-43.5 -4.5q-41 0 -60.5 15.5t-26.5 45.5q-26 -29 -68 -46t-96 -17q-49 0 -79 14.5t-46.5 36t-22 45.5t-5.5 43q0 50 20 84t54.5 55t80.5 30t98 9q18 0 30 -0.5t23 -1.5v39q0 24 -3.5 42t-13 31
t-27.5 19.5t-46 6.5q-47 0 -67 -20t-28 -60l-101 18q12 73 60.5 111t144.5 38q100 0 147 -41.5t47 -138.5v-239zM354 224q-8 1 -18 1.5t-30 0.5q-22 0 -47 -2.5t-46 -10.5t-35 -25t-14 -45q0 -14 3.5 -26t12 -22t23.5 -15.5t38 -5.5q35 0 65.5 15t47.5 33v102zM261 572
l-80 10l88 164h130z" />
    <glyph glyph-name="acircumflex" unicode="&#xe2;" horiz-adv-x="550" 
d="M466 109q0 -21 5.5 -30.5t25.5 -9.5q11 0 31 6l4 -68q-15 -8 -37.5 -12.5t-43.5 -4.5q-41 0 -60.5 15.5t-26.5 45.5q-26 -29 -68 -46t-96 -17q-49 0 -79 14.5t-46.5 36t-22 45.5t-5.5 43q0 50 20 84t54.5 55t80.5 30t98 9q18 0 30 -0.5t23 -1.5v39q0 24 -3.5 42t-13 31
t-27.5 19.5t-46 6.5q-47 0 -67 -20t-28 -60l-101 18q12 73 60.5 111t144.5 38q100 0 147 -41.5t47 -138.5v-239zM354 224q-8 1 -18 1.5t-30 0.5q-22 0 -47 -2.5t-46 -10.5t-35 -25t-14 -45q0 -14 3.5 -26t12 -22t23.5 -15.5t38 -5.5q35 0 65.5 15t47.5 33v102zM354 577
l-83 105l-83 -107l-82 7l109 165h111l109 -165z" />
    <glyph glyph-name="atilde" unicode="&#xe3;" horiz-adv-x="550" 
d="M466 109q0 -21 5.5 -30.5t25.5 -9.5q11 0 31 6l4 -68q-15 -8 -37.5 -12.5t-43.5 -4.5q-41 0 -60.5 15.5t-26.5 45.5q-26 -29 -68 -46t-96 -17q-49 0 -79 14.5t-46.5 36t-22 45.5t-5.5 43q0 50 20 84t54.5 55t80.5 30t98 9q18 0 30 -0.5t23 -1.5v39q0 24 -3.5 42t-13 31
t-27.5 19.5t-46 6.5q-47 0 -67 -20t-28 -60l-101 18q12 73 60.5 111t144.5 38q100 0 147 -41.5t47 -138.5v-239zM354 224q-8 1 -18 1.5t-30 0.5q-22 0 -47 -2.5t-46 -10.5t-35 -25t-14 -45q0 -14 3.5 -26t12 -22t23.5 -15.5t38 -5.5q35 0 65.5 15t47.5 33v102zM194 722
q24 0 44 -7t38 -15.5t34.5 -15.5t33.5 -7q18 0 26 9.5t8 39.5l64 -4q8 -62 -16.5 -95.5t-70.5 -33.5q-24 0 -45 7t-39.5 16t-35.5 16t-33 7q-17 0 -26 -10.5t-7 -41.5l-66 3q-4 32 1.5 57t18.5 41.5t31 25t40 8.5z" />
    <glyph glyph-name="adieresis" unicode="&#xe4;" horiz-adv-x="550" 
d="M466 109q0 -21 5.5 -30.5t25.5 -9.5q11 0 31 6l4 -68q-15 -8 -37.5 -12.5t-43.5 -4.5q-41 0 -60.5 15.5t-26.5 45.5q-26 -29 -68 -46t-96 -17q-49 0 -79 14.5t-46.5 36t-22 45.5t-5.5 43q0 50 20 84t54.5 55t80.5 30t98 9q18 0 30 -0.5t23 -1.5v39q0 24 -3.5 42t-13 31
t-27.5 19.5t-46 6.5q-47 0 -67 -20t-28 -60l-101 18q12 73 60.5 111t144.5 38q100 0 147 -41.5t47 -138.5v-239zM354 224q-8 1 -18 1.5t-30 0.5q-22 0 -47 -2.5t-46 -10.5t-35 -25t-14 -45q0 -14 3.5 -26t12 -22t23.5 -15.5t38 -5.5q35 0 65.5 15t47.5 33v102zM235 675
q0 -33 -20.5 -52t-52.5 -19q-33 0 -53.5 19t-20.5 52q0 32 20.5 51t53.5 19q32 0 52.5 -19t20.5 -51zM455 675q0 -33 -20.5 -52t-52.5 -19q-34 0 -54 19t-20 52q0 32 20 51t54 19q32 0 52.5 -19t20.5 -51z" />
    <glyph glyph-name="aring" unicode="&#xe5;" horiz-adv-x="550" 
d="M466 109q0 -21 5.5 -30.5t25.5 -9.5q11 0 31 6l4 -68q-15 -8 -37.5 -12.5t-43.5 -4.5q-41 0 -60.5 15.5t-26.5 45.5q-26 -29 -68 -46t-96 -17q-49 0 -79 14.5t-46.5 36t-22 45.5t-5.5 43q0 50 20 84t54.5 55t80.5 30t98 9q18 0 30 -0.5t23 -1.5v39q0 24 -3.5 42t-13 31
t-27.5 19.5t-46 6.5q-47 0 -67 -20t-28 -60l-101 18q12 73 60.5 111t144.5 38q100 0 147 -41.5t47 -138.5v-239zM354 224q-8 1 -18 1.5t-30 0.5q-22 0 -47 -2.5t-46 -10.5t-35 -25t-14 -45q0 -14 3.5 -26t12 -22t23.5 -15.5t38 -5.5q35 0 65.5 15t47.5 33v102zM380 674
q0 -49 -30 -75.5t-79 -26.5t-79 25.5t-30 72.5q0 26 9 46t24 33.5t34.5 20t41.5 6.5q45 0 77 -25t32 -77zM270 626q23 0 35 12.5t12 35.5q0 46 -46 46q-21 0 -34.5 -12t-13.5 -35q0 -47 47 -47z" />
    <glyph glyph-name="ae" unicode="&#xe6;" horiz-adv-x="851" 
d="M591 -12q-70 0 -115 20.5t-73 57.5q-42 -43 -95 -60.5t-106 -17.5q-49 0 -79 14.5t-47 36t-23 45.5t-6 44q0 50 18.5 83.5t51.5 54t79 29.5t101 11q12 0 28.5 -0.5t27.5 -1.5v34q0 24 -3.5 43t-13.5 32.5t-28 20.5t-46 7q-47 0 -68.5 -19.5t-28.5 -60.5l-98 18
q22 149 198 149q67 0 102.5 -19.5t55.5 -60.5q31 39 77 59.5t103 20.5q53 0 91.5 -17t63 -48t36.5 -73t12 -93q0 -14 -0.5 -34t-2.5 -34h-335q1 -44 11 -72t27 -44.5t40 -23t52 -6.5q49 0 73 21.5t34 61.5l99 -23q-16 -74 -72 -114.5t-141 -40.5zM242 73q35 0 69.5 15
t59.5 41q-8 23 -12 48t-6 53q-10 0 -22.5 0.5t-25.5 -0.5q-29 0 -55 -4.5t-45 -14t-30 -26.5t-11 -42q0 -28 16.5 -49t61.5 -21zM687 309q2 67 -23 98t-77 31q-22 0 -42.5 -7.5t-37 -23.5t-26.5 -40.5t-11 -57.5h217z" />
    <glyph glyph-name="ccedilla" unicode="&#xe7;" horiz-adv-x="541" 
d="M204 -155q11 -5 24 -8t28 -3q50 0 50 41q0 24 -17 33t-53 10l10 72q-54 6 -92 27.5t-63 56t-36.5 80t-11.5 98.5q0 135 67 205.5t189 70.5q86 0 141.5 -48.5t62.5 -140.5l-106 -15q-6 51 -29 81.5t-74 30.5q-25 0 -48.5 -7.5t-42 -26.5t-29.5 -52.5t-11 -84.5
q0 -53 10 -88t27 -56t40.5 -30t50.5 -9q48 0 76.5 24.5t37.5 78.5l100 -20q-6 -43 -23.5 -75t-43 -53.5t-58.5 -33t-70 -14.5l-4 -27q16 -3 30.5 -9t25.5 -16.5t18 -26t7 -37.5q0 -50 -33.5 -77.5t-84.5 -27.5q-26 0 -47 5.5t-35 12.5z" />
    <glyph glyph-name="egrave" unicode="&#xe8;" horiz-adv-x="547" 
d="M287 -12q-70 0 -116.5 22t-75 59.5t-40.5 86.5t-12 102q0 70 19.5 121t53.5 84t78.5 49t95.5 16q56 0 96.5 -17t66 -47.5t37.5 -72.5t12 -92q0 -33 -3 -69h-335q1 -41 11 -69t27 -45.5t40.5 -25.5t51.5 -8q50 0 73.5 22t32.5 62l98 -24q-15 -74 -70.5 -114t-140.5 -40z
M383 310q0 66 -24 96.5t-76 30.5q-22 0 -42 -7t-36 -22t-26.5 -39.5t-12.5 -58.5h217zM157 746h130l88 -164l-80 -10z" />
    <glyph glyph-name="eacute" unicode="&#xe9;" horiz-adv-x="547" 
d="M287 -12q-70 0 -116.5 22t-75 59.5t-40.5 86.5t-12 102q0 70 19.5 121t53.5 84t78.5 49t95.5 16q56 0 96.5 -17t66 -47.5t37.5 -72.5t12 -92q0 -33 -3 -69h-335q1 -41 11 -69t27 -45.5t40.5 -25.5t51.5 -8q50 0 73.5 22t32.5 62l98 -24q-15 -74 -70.5 -114t-140.5 -40z
M383 310q0 66 -24 96.5t-76 30.5q-22 0 -42 -7t-36 -22t-26.5 -39.5t-12.5 -58.5h217zM275 572l-80 10l88 164h130z" />
    <glyph glyph-name="ecircumflex" unicode="&#xea;" horiz-adv-x="547" 
d="M287 -12q-70 0 -116.5 22t-75 59.5t-40.5 86.5t-12 102q0 70 19.5 121t53.5 84t78.5 49t95.5 16q56 0 96.5 -17t66 -47.5t37.5 -72.5t12 -92q0 -33 -3 -69h-335q1 -41 11 -69t27 -45.5t40.5 -25.5t51.5 -8q50 0 73.5 22t32.5 62l98 -24q-15 -74 -70.5 -114t-140.5 -40z
M383 310q0 66 -24 96.5t-76 30.5q-22 0 -42 -7t-36 -22t-26.5 -39.5t-12.5 -58.5h217zM368 577l-83 105l-83 -107l-82 7l109 165h111l109 -165z" />
    <glyph glyph-name="edieresis" unicode="&#xeb;" horiz-adv-x="547" 
d="M287 -12q-70 0 -116.5 22t-75 59.5t-40.5 86.5t-12 102q0 70 19.5 121t53.5 84t78.5 49t95.5 16q56 0 96.5 -17t66 -47.5t37.5 -72.5t12 -92q0 -33 -3 -69h-335q1 -41 11 -69t27 -45.5t40.5 -25.5t51.5 -8q50 0 73.5 22t32.5 62l98 -24q-15 -74 -70.5 -114t-140.5 -40z
M383 310q0 66 -24 96.5t-76 30.5q-22 0 -42 -7t-36 -22t-26.5 -39.5t-12.5 -58.5h217zM249 675q0 -33 -20.5 -52t-52.5 -19q-33 0 -53.5 19t-20.5 52q0 32 20.5 51t53.5 19q32 0 52.5 -19t20.5 -51zM469 675q0 -33 -20.5 -52t-52.5 -19q-34 0 -54 19t-20 52q0 32 20 51
t54 19q32 0 52.5 -19t20.5 -51z" />
    <glyph glyph-name="igrave" unicode="&#xec;" horiz-adv-x="257" 
d="M188 0h-115v517h115v-517zM-8 746h130l88 -164l-80 -10z" />
    <glyph glyph-name="iacute" unicode="&#xed;" horiz-adv-x="257" 
d="M188 0h-115v517h115v-517zM135 572l-80 10l88 164h130z" />
    <glyph glyph-name="icircumflex" unicode="&#xee;" horiz-adv-x="257" 
d="M188 0h-115v517h115v-517zM213 577l-83 105l-83 -107l-82 7l109 165h111l109 -165z" />
    <glyph glyph-name="idieresis" unicode="&#xef;" horiz-adv-x="257" 
d="M188 0h-115v517h115v-517zM94 675q0 -33 -20.5 -52t-52.5 -19q-33 0 -53.5 19t-20.5 52q0 32 20.5 51t53.5 19q32 0 52.5 -19t20.5 -51zM314 675q0 -33 -20.5 -52t-52.5 -19q-34 0 -54 19t-20 52q0 32 20 51t54 19q32 0 52.5 -19t20.5 -51z" />
    <glyph glyph-name="eth" unicode="&#xf0;" horiz-adv-x="581" 
d="M41 245q0 54 14 102t42 84t70.5 57t98.5 21q72 0 133 -35l4 3q-11 35 -28.5 64.5t-43.5 54.5l-91 -51l-44 70l73 41q-26 14 -61 23.5t-65 14.5l39 78q102 -15 174 -64l98 59l50 -75l-77 -44q59 -66 83.5 -151.5t24.5 -180.5q0 -65 -12 -124t-41.5 -104.5t-78.5 -72.5
t-123 -27q-61 0 -106 19t-74.5 53t-44 81t-14.5 104zM160 249q0 -38 6.5 -69.5t21.5 -54t39 -35.5t58 -13q39 0 65 17t42 47.5t22.5 72.5t6.5 93q0 16 -1 32t-3 33q-20 20 -53.5 34t-72.5 14q-63 0 -97 -41.5t-34 -129.5z" />
    <glyph glyph-name="ntilde" unicode="&#xf1;" horiz-adv-x="583" 
d="M517 0h-115v333q0 49 -19.5 74t-65.5 25q-20 0 -39 -5.5t-36.5 -13.5t-32 -17.5t-23.5 -18.5v-377h-115v517h102l5 -54q35 28 80 46.5t99 18.5q85 0 122.5 -44t37.5 -132v-352zM217 722q24 0 44 -7t38 -15.5t34.5 -15.5t33.5 -7q18 0 26 9.5t8 39.5l64 -4
q8 -62 -16.5 -95.5t-70.5 -33.5q-24 0 -45 7t-39.5 16t-35.5 16t-33 7q-17 0 -26 -10.5t-7 -41.5l-66 3q-4 32 1.5 57t18.5 41.5t31 25t40 8.5z" />
    <glyph glyph-name="ograve" unicode="&#xf2;" horiz-adv-x="582" 
d="M287 -12q-68 0 -115 20t-75.5 56t-41 85t-12.5 107q0 62 16 112.5t48.5 86t80.5 54.5t112 19t109.5 -19t74 -53.5t42 -82.5t13.5 -105q0 -64 -14.5 -115.5t-45 -88t-78 -56.5t-114.5 -20zM293 77q60 0 93 42.5t33 142.5q0 48 -8 81.5t-23.5 53.5t-38.5 29t-53 9
q-62 0 -97.5 -40.5t-35.5 -134.5q0 -95 31 -139t99 -44zM169 746h130l88 -164l-80 -10z" />
    <glyph glyph-name="oacute" unicode="&#xf3;" horiz-adv-x="582" 
d="M287 -12q-68 0 -115 20t-75.5 56t-41 85t-12.5 107q0 62 16 112.5t48.5 86t80.5 54.5t112 19t109.5 -19t74 -53.5t42 -82.5t13.5 -105q0 -64 -14.5 -115.5t-45 -88t-78 -56.5t-114.5 -20zM293 77q60 0 93 42.5t33 142.5q0 48 -8 81.5t-23.5 53.5t-38.5 29t-53 9
q-62 0 -97.5 -40.5t-35.5 -134.5q0 -95 31 -139t99 -44zM287 572l-80 10l88 164h130z" />
    <glyph glyph-name="ocircumflex" unicode="&#xf4;" horiz-adv-x="582" 
d="M287 -12q-68 0 -115 20t-75.5 56t-41 85t-12.5 107q0 62 16 112.5t48.5 86t80.5 54.5t112 19t109.5 -19t74 -53.5t42 -82.5t13.5 -105q0 -64 -14.5 -115.5t-45 -88t-78 -56.5t-114.5 -20zM293 77q60 0 93 42.5t33 142.5q0 48 -8 81.5t-23.5 53.5t-38.5 29t-53 9
q-62 0 -97.5 -40.5t-35.5 -134.5q0 -95 31 -139t99 -44zM380 577l-83 105l-83 -107l-82 7l109 165h111l109 -165z" />
    <glyph glyph-name="otilde" unicode="&#xf5;" horiz-adv-x="582" 
d="M287 -12q-68 0 -115 20t-75.5 56t-41 85t-12.5 107q0 62 16 112.5t48.5 86t80.5 54.5t112 19t109.5 -19t74 -53.5t42 -82.5t13.5 -105q0 -64 -14.5 -115.5t-45 -88t-78 -56.5t-114.5 -20zM293 77q60 0 93 42.5t33 142.5q0 48 -8 81.5t-23.5 53.5t-38.5 29t-53 9
q-62 0 -97.5 -40.5t-35.5 -134.5q0 -95 31 -139t99 -44zM220 722q24 0 44 -7t38 -15.5t34.5 -15.5t33.5 -7q18 0 26 9.5t8 39.5l64 -4q8 -62 -16.5 -95.5t-70.5 -33.5q-24 0 -45 7t-39.5 16t-35.5 16t-33 7q-17 0 -26 -10.5t-7 -41.5l-66 3q-4 32 1.5 57t18.5 41.5t31 25
t40 8.5z" />
    <glyph glyph-name="odieresis" unicode="&#xf6;" horiz-adv-x="582" 
d="M287 -12q-68 0 -115 20t-75.5 56t-41 85t-12.5 107q0 62 16 112.5t48.5 86t80.5 54.5t112 19t109.5 -19t74 -53.5t42 -82.5t13.5 -105q0 -64 -14.5 -115.5t-45 -88t-78 -56.5t-114.5 -20zM293 77q60 0 93 42.5t33 142.5q0 48 -8 81.5t-23.5 53.5t-38.5 29t-53 9
q-62 0 -97.5 -40.5t-35.5 -134.5q0 -95 31 -139t99 -44zM261 675q0 -33 -20.5 -52t-52.5 -19q-33 0 -53.5 19t-20.5 52q0 32 20.5 51t53.5 19q32 0 52.5 -19t20.5 -51zM481 675q0 -33 -20.5 -52t-52.5 -19q-34 0 -54 19t-20 52q0 32 20 51t54 19q32 0 52.5 -19t20.5 -51z
" />
    <glyph glyph-name="divide" unicode="&#xf7;" 
d="M350 161q0 -32 -17.5 -49t-52.5 -17q-70 0 -70 66q0 31 17.5 49t52.5 18t52.5 -18t17.5 -49zM94 272v98h381v-98h-381zM350 481q0 -66 -70 -66t-70 66q0 31 17.5 49t52.5 18t52.5 -18t17.5 -49z" />
    <glyph glyph-name="oslash" unicode="&#xf8;" horiz-adv-x="582" 
d="M287 -12q-35 0 -65 6l-29 -66h-106l45 102q-48 35 -68.5 93.5t-20.5 132.5q0 62 16 112.5t48.5 86t80.5 54.5t112 19q14 0 26.5 -1t24.5 -3l27 62h105l-42 -94q51 -32 74.5 -90.5t23.5 -133.5q0 -64 -14.5 -115.5t-45 -88t-78 -56.5t-114.5 -20zM293 77q60 0 93 42.5
t33 142.5q0 83 -24 124l-135 -306q15 -3 33 -3zM163 260q0 -75 19 -117l129 291q-4 0 -7.5 0.5t-7.5 0.5q-62 0 -97.5 -40.5t-35.5 -134.5z" />
    <glyph glyph-name="ugrave" unicode="&#xf9;" horiz-adv-x="580" 
d="M70 517h115v-333q0 -49 17.5 -73.5t63.5 -24.5q19 0 38 5t36.5 13t32 17.5t23.5 18.5v377h115v-517h-100l-8 57q-34 -31 -78.5 -49.5t-98.5 -18.5q-81 0 -118.5 43.5t-37.5 131.5v353zM151 746h130l88 -164l-80 -10z" />
    <glyph glyph-name="uacute" unicode="&#xfa;" horiz-adv-x="580" 
d="M70 517h115v-333q0 -49 17.5 -73.5t63.5 -24.5q19 0 38 5t36.5 13t32 17.5t23.5 18.5v377h115v-517h-100l-8 57q-34 -31 -78.5 -49.5t-98.5 -18.5q-81 0 -118.5 43.5t-37.5 131.5v353zM292 572l-80 10l88 164h130z" />
    <glyph glyph-name="ucircumflex" unicode="&#xfb;" horiz-adv-x="580" 
d="M70 517h115v-333q0 -49 17.5 -73.5t63.5 -24.5q19 0 38 5t36.5 13t32 17.5t23.5 18.5v377h115v-517h-100l-8 57q-34 -31 -78.5 -49.5t-98.5 -18.5q-81 0 -118.5 43.5t-37.5 131.5v353zM375 577l-83 105l-83 -107l-82 7l109 165h111l109 -165z" />
    <glyph glyph-name="udieresis" unicode="&#xfc;" horiz-adv-x="580" 
d="M70 517h115v-333q0 -49 17.5 -73.5t63.5 -24.5q19 0 38 5t36.5 13t32 17.5t23.5 18.5v377h115v-517h-100l-8 57q-34 -31 -78.5 -49.5t-98.5 -18.5q-81 0 -118.5 43.5t-37.5 131.5v353zM256 675q0 -33 -20.5 -52t-52.5 -19q-33 0 -53.5 19t-20.5 52q0 32 20.5 51t53.5 19
q32 0 52.5 -19t20.5 -51zM476 675q0 -33 -20.5 -52t-52.5 -19q-34 0 -54 19t-20 52q0 32 20 51t54 19q32 0 52.5 -19t20.5 -51z" />
    <glyph glyph-name="yacute" unicode="&#xfd;" horiz-adv-x="502" 
d="M3 517h124l127 -388h1l127 388h118q-26 -71 -53.5 -146t-55.5 -150t-55 -147.5t-52 -139.5q-16 -43 -33 -73t-38 -48.5t-48 -27t-61 -8.5q-29 0 -58.5 6t-45.5 14l11 86q17 -6 39.5 -11t41.5 -5q26 0 47 15.5t37 55.5l21 54zM278 572l-80 10l88 164h130z" />
    <glyph glyph-name="thorn" unicode="&#xfe;" horiz-adv-x="586" 
d="M187 128q7 -6 19.5 -14t27.5 -15t32.5 -12t36.5 -5q65 0 92 50.5t27 136.5q0 89 -27 127t-84 38q-18 0 -36 -5t-34.5 -13t-30 -18t-23.5 -19v-251zM72 755h113v-288q33 30 73 45.5t93 15.5q41 0 76 -13.5t60.5 -44t40 -79.5t14.5 -120q0 -77 -17 -130.5t-46.5 -87.5
t-68.5 -49.5t-82 -15.5q-47 0 -82 14t-62 36v-250h-112v967z" />
    <glyph glyph-name="ydieresis" unicode="&#xff;" horiz-adv-x="502" 
d="M3 517h124l127 -388h1l127 388h118q-26 -71 -53.5 -146t-55.5 -150t-55 -147.5t-52 -139.5q-16 -43 -33 -73t-38 -48.5t-48 -27t-61 -8.5q-29 0 -58.5 6t-45.5 14l11 86q17 -6 39.5 -11t41.5 -5q26 0 47 15.5t37 55.5l21 54zM219 675q0 -33 -20.5 -52t-52.5 -19
q-33 0 -53.5 19t-20.5 52q0 32 20.5 51t53.5 19q32 0 52.5 -19t20.5 -51zM439 675q0 -33 -20.5 -52t-52.5 -19q-34 0 -54 19t-20 52q0 32 20 51t54 19q32 0 52.5 -19t20.5 -51z" />
    <glyph glyph-name="dotlessi" unicode="&#x131;" horiz-adv-x="257" 
d="M188 0h-115v517h115v-517z" />
    <glyph glyph-name="OE" unicode="&#x152;" horiz-adv-x="1082" 
d="M604 0v94q-36 -51 -95 -78.5t-134 -27.5q-86 0 -148.5 28t-103 77.5t-59.5 118t-19 149.5t22 149.5t65 119t107 79t147 28.5q75 0 129 -25.5t89 -70.5v83h425v-98h-320v-214h301v-97h-301v-217h335v-98h-440zM380 88q46 0 85.5 15.5t68 48.5t44.5 84.5t17 123.5
q0 142 -55.5 208.5t-152.5 66.5q-49 0 -89.5 -16.5t-70 -50t-45.5 -85t-16 -121.5q0 -71 15.5 -123t43.5 -85.5t67.5 -49.5t87.5 -16z" />
    <glyph glyph-name="oe" unicode="&#x153;" horiz-adv-x="915" 
d="M662 -12q-75 0 -120.5 28t-68.5 70q-26 -45 -72.5 -71.5t-118.5 -26.5q-66 0 -112 20t-74 56t-40.5 85t-12.5 107q0 62 16 112.5t47.5 86t79 54.5t109.5 19q71 0 114 -26t70 -71q29 47 76.5 72t109.5 25q54 0 92.5 -17t63.5 -47.5t37 -73t12 -92.5q0 -14 -0.5 -33.5
t-2.5 -34.5h-335q1 -41 11 -69t27 -45.5t40 -25.5t52 -8q50 0 73 22t33 62l98 -24q-16 -75 -71.5 -114.5t-132.5 -39.5zM293 77q59 0 92.5 42t33.5 143q0 48 -8 81.5t-23.5 53.5t-38.5 29t-53 9q-62 0 -97.5 -41t-35.5 -134q0 -96 31 -139.5t99 -43.5zM751 310q0 65 -24 96
t-76 31q-22 0 -42 -7t-36 -22t-26.5 -39.5t-12.5 -58.5h217z" />
    <glyph glyph-name="Scaron" unicode="&#x160;" horiz-adv-x="599" 
d="M306 642q-72 0 -103 -27t-31 -71q0 -33 16.5 -54t44 -35.5t62 -25t71 -21.5t71 -25.5t62 -37t44 -56t16.5 -82.5q0 -59 -22 -100.5t-58.5 -68t-84 -38.5t-99.5 -12q-54 0 -100.5 10.5t-82 35.5t-58.5 66t-29 103l108 16q6 -28 16 -53t28 -44t47 -30t73 -11q27 0 53 5
t46.5 17.5t33 34t12.5 53.5q0 34 -16.5 55.5t-44 36t-62 24t-71 20t-71 24t-62 36.5t-44 57.5t-16.5 85.5q0 49 19.5 87.5t53 65t79.5 40.5t100 14q48 0 90 -10t75 -34t54.5 -64t26.5 -100l-108 -13q-4 26 -12 49t-23.5 40t-40.5 27t-63 10zM307 835l81 78l82 -9l-112 -133
h-103l-110 133l83 7z" />
    <glyph glyph-name="scaron" unicode="&#x161;" horiz-adv-x="493" 
d="M252 528q45 0 78.5 -10.5t57 -29.5t38 -46t22.5 -61l-100 -26q-5 19 -11 35t-17 27.5t-28 18t-42 6.5q-48 0 -68.5 -17.5t-20.5 -43.5q0 -36 30.5 -50.5t81.5 -23.5q33 -6 66 -14.5t59.5 -25t42.5 -44t16 -71.5q0 -40 -15.5 -70.5t-43.5 -51.5t-67 -31.5t-87 -10.5
q-187 0 -211 146l98 32q5 -18 12 -35t20 -29.5t33.5 -20t51.5 -7.5q43 0 70 14.5t27 47.5q0 19 -7.5 31.5t-21.5 20t-34 12.5t-45 10q-32 6 -64.5 14.5t-59 25t-43.5 44.5t-17 74q0 40 16 70.5t43 50t63 29.5t77 10zM172 742l81 -105l84 106l79 -7l-109 -164h-111l-109 164z
" />
    <glyph glyph-name="Ydieresis" unicode="&#x178;" horiz-adv-x="582" 
d="M356 0h-118v277l-248 447h128l180 -336h2l174 336h118l-237 -445zM256 848q0 -33 -20.5 -51.5t-52.5 -18.5q-33 0 -53.5 18.5t-20.5 51.5q0 32 20.5 51t53.5 19q32 0 52.5 -19t20.5 -51zM476 848q0 -33 -20.5 -51.5t-52.5 -18.5q-34 0 -54 18.5t-20 51.5q0 32 20 51
t54 19q32 0 52.5 -19t20.5 -51z" />
    <glyph glyph-name="Zcaron" unicode="&#x17d;" horiz-adv-x="589" 
d="M173 98h380v-98h-522v84l369 542h-359v98h497v-87zM284 835l81 78l82 -9l-112 -133h-103l-110 133l83 7z" />
    <glyph glyph-name="zcaron" unicode="&#x17e;" horiz-adv-x="462" 
d="M159 94h279v-94h-409v82l269 345h-265v90h393v-83zM151 742l81 -105l84 106l79 -7l-109 -164h-111l-109 164z" />
    <glyph glyph-name="florin" unicode="&#x192;" horiz-adv-x="552" 
d="M477 587q-9 28 -22.5 46.5t-42.5 18.5q-30 0 -48 -17t-26 -59l-25 -130h138l-14 -80h-137l-75 -381q-17 -86 -58.5 -125.5t-124.5 -39.5q-64 0 -102.5 31t-53.5 84l94 35q9 -28 23.5 -46t45.5 -18q29 0 45.5 16t24.5 59l74 385h-86l14 80h87l25 126q16 85 58.5 125
t125.5 40q64 0 100.5 -31t53.5 -85z" />
    <glyph glyph-name="uni0237" unicode="&#x237;" horiz-adv-x="255" 
d="M25 -223q-31 0 -62 7t-45 16l10 88q15 -6 36 -11.5t42 -5.5q29 0 48 17t19 63v566h115v-573q0 -89 -44 -128t-119 -39z" />
    <glyph glyph-name="circumflex" unicode="&#x2c6;" horiz-adv-x="500" 
d="M333 577l-83 105l-83 -107l-82 7l109 165h111l109 -165z" />
    <glyph glyph-name="tilde" unicode="&#x2dc;" horiz-adv-x="500" 
d="M173 722q24 0 44 -7t38 -15.5t34.5 -15.5t33.5 -7q18 0 26 9.5t8 39.5l64 -4q8 -62 -16.5 -95.5t-70.5 -33.5q-24 0 -45 7t-39.5 16t-35.5 16t-33 7q-17 0 -26 -10.5t-7 -41.5l-66 3q-4 32 1.5 57t18.5 41.5t31 25t40 8.5z" />
    <glyph glyph-name="endash" unicode="&#x2013;" horiz-adv-x="500" 
d="M0 238v87h499v-87h-499z" />
    <glyph glyph-name="emdash" unicode="&#x2014;" horiz-adv-x="1000" 
d="M0 238v87h999v-87h-999z" />
    <glyph glyph-name="quoteleft" unicode="&#x2018;" horiz-adv-x="215" 
d="M149 550h-117l84 234l86 -10z" />
    <glyph glyph-name="quoteright" unicode="&#x2019;" horiz-adv-x="215" 
d="M82 770h117l-84 -234l-86 10z" />
    <glyph glyph-name="quotesinglbase" unicode="&#x201a;" horiz-adv-x="202" 
d="M58 91h117l-84 -234l-86 10z" />
    <glyph glyph-name="quotedblleft" unicode="&#x201c;" horiz-adv-x="381" 
d="M315 550h-117l84 234l86 -10zM149 550h-117l84 234l86 -10z" />
    <glyph glyph-name="quotedblright" unicode="&#x201d;" horiz-adv-x="381" 
d="M248 770h117l-84 -234l-86 10zM82 770h117l-84 -234l-86 10z" />
    <glyph glyph-name="quotedblbase" unicode="&#x201e;" horiz-adv-x="368" 
d="M58 91h117l-84 -234l-86 10zM224 91h117l-84 -234l-86 10z" />
    <glyph glyph-name="dagger" unicode="&#x2020;" horiz-adv-x="419" 
d="M245 479l20 -562h-111l15 561l-149 -12v97l149 -13l-12 174h105l-13 -173l150 12v-97z" />
    <glyph glyph-name="daggerdbl" unicode="&#x2021;" horiz-adv-x="431" 
d="M252 477l2 -314l151 12v-97l-149 13l12 -174h-105l13 173l-150 -12v97l150 -11l-1 314l-149 -12v97l149 -13l-12 174h105l-13 -173l150 12v-97z" />
    <glyph glyph-name="bullet" unicode="&#x2022;" horiz-adv-x="419" 
d="M352 280q0 -70 -37 -105t-106 -35t-105.5 35t-36.5 105t36.5 104.5t105.5 34.5t106 -34.5t37 -104.5z" />
    <glyph glyph-name="ellipsis" unicode="&#x2026;" horiz-adv-x="676" 
d="M414 63q0 -75 -78 -75t-78 75q0 76 78 76t78 -76zM200 63q0 -75 -78 -75t-78 75q0 76 78 76t78 -76zM632 63q0 -75 -78 -75t-78 75q0 76 78 76t78 -76z" />
    <glyph glyph-name="perthousand" unicode="&#x2030;" horiz-adv-x="1032" 
d="M187 412q-41 0 -68.5 12t-44.5 33t-24.5 50t-7.5 63q0 78 38.5 122.5t113.5 44.5q77 0 111 -42.5t34 -115.5q0 -78 -38.5 -122.5t-113.5 -44.5zM74 -15l439 739h103l-438 -739h-104zM190 478q35 0 49 25.5t14 73.5q0 44 -13 68.5t-48 24.5t-49 -27t-14 -68q0 -45 13 -71
t48 -26zM507 -12q-41 0 -68.5 12t-44.5 33t-24.5 50t-7.5 63q0 78 38.5 122.5t113.5 44.5q77 0 111 -42.5t34 -115.5q0 -78 -38.5 -122.5t-113.5 -44.5zM511 54q35 0 48.5 25.5t13.5 73.5q0 44 -13 68.5t-48 24.5t-49 -27t-14 -68q0 -45 13.5 -71t48.5 -26zM838 -12
q-41 0 -68.5 12t-44.5 33t-24.5 50t-7.5 63q0 78 38.5 122.5t113.5 44.5q77 0 111 -42.5t34 -115.5q0 -78 -38.5 -122.5t-113.5 -44.5zM842 54q35 0 48.5 25.5t13.5 73.5q0 44 -13 68.5t-48 24.5t-49 -27t-14 -68q0 -45 13.5 -71t48.5 -26z" />
    <glyph glyph-name="guilsinglleft" unicode="&#x2039;" horiz-adv-x="279" 
d="M136 103l-87 155l89 150h98l-86 -147l83 -158h-97z" />
    <glyph glyph-name="guilsinglright" unicode="&#x203a;" horiz-adv-x="279" 
d="M140 408l88 -154l-87 -151h-98l84 151l-85 154h98z" />
    <glyph glyph-name="Euro" unicode="&#x20ac;" horiz-adv-x="625" 
d="M361 -12q-52 0 -95.5 13.5t-77.5 43t-57 76t-33 112.5h-90l16 84h66q-1 8 -1 17v18v20.5t1 19.5h-56l16 84h49q12 68 37 117t61 81t81.5 47.5t98.5 15.5q48 0 88.5 -12t70.5 -39t48 -70t21 -104l-102 -11q-8 76 -36 107.5t-91 31.5q-74 0 -111.5 -43.5t-51.5 -120.5h217
l-16 -84h-209v-34v-21t1 -20h198l-16 -84h-173q14 -75 50.5 -111.5t102.5 -36.5q63 0 93 31t43 94l97 -19q-8 -58 -32 -97t-57.5 -62.5t-72.5 -33.5t-78 -10z" />
    <glyph glyph-name="trademark" unicode="&#x2122;" horiz-adv-x="842" 
d="M714 348v256l-100 -256h-53l-97 257v-257h-63v376h80l109 -292l112 292h74v-376h-62zM225 348h-69v317h-124v59h318v-59h-125v-317z" />
    </font>
</defs>
</svg>
