<?xml version="1.0" encoding="UTF-8" standalone="no"?>
<svg width="50px" height="50px" viewBox="0 0 50 50" version="1.1" xmlns="http://www.w3.org/2000/svg" xmlns:xlink="http://www.w3.org/1999/xlink">
    <!-- Generator: Sketch 39.1 (31720) - http://www.bohemiancoding.com/sketch -->
    <title>Group 4</title>
    <desc>Created with Sketch.</desc>
    <defs></defs>
    <g id="Visual-Design" stroke="none" stroke-width="1" fill="none" fill-rule="evenodd" stroke-linecap="round" stroke-linejoin="round">
        <g id="Landing" transform="translate(-431.000000, -444.000000)" stroke="#3188D3" stroke-width="2">
            <g id="Group-13" transform="translate(202.000000, 415.000000)">
                <g id="Group-20" transform="translate(176.000000, 0.000000)">
                    <g id="Group-4" transform="translate(54.000000, 30.000000)">
                        <path d="M38.8913898,36.6912099 L30.5084746,34.5954811 L29.5533559,30.7733794 C31.8882712,28.6792777 33.1069831,25.1207692 33.3559322,21.9853116 C34.3810169,21.9853116 34.8561356,22.1887014 34.9830508,21.1717522 L35.7966102,17.1039556 C35.9463051,15.8982607 35.3800678,14.6779217 34.1694915,14.6632777 L34.1694915,8.96836242 L35.1864407,7.95141326 C36.5027797,6.55209123 37.1129492,5.28293869 35.7966102,3.27344716 C34.4737627,1.25256581 31.9663729,0.0192098739 28.7397966,0.0192098739 C27.0345763,0.0192098739 23.8682034,-0.298078262 21.1525424,1.64632852 C12.9567458,1.72768445 11.3898305,5.3447692 11.3898305,8.96836242 C11.3898305,10.2456506 12.6833898,14.256498 12.6833898,14.256498 L12.4734915,14.256498 C11.2498983,14.256498 10.3029153,15.3287692 10.4542373,16.5425997 L10.9635254,20.6103963 C11.0904407,21.6273455 11.9560678,22.3920912 12.9811525,22.3920912 L13.3130847,22.3920912 C13.5555254,25.4429387 15.0362034,28.5133116 17.2686102,30.6074133 L16.2711864,34.5954811 L7.88827119,36.6912099 C3.25261017,37.8497183 0,42.0151421 0,46.7939895 L0,47.2056506 L47.1864407,47.2056506 C47.1864407,42.4268031 43.5270508,37.8497183 38.8913898,36.6912099 L38.8913898,36.6912099 Z" id="Stroke-12"></path>
                    </g>
                </g>
            </g>
        </g>
    </g>
</svg>