<?xml version="1.0" encoding="UTF-8" standalone="no"?>
<svg width="48px" height="48px" viewBox="0 0 48 48" version="1.1" xmlns="http://www.w3.org/2000/svg" xmlns:xlink="http://www.w3.org/1999/xlink">
    <!-- Generator: Sketch 39.1 (31720) - http://www.bohemiancoding.com/sketch -->
    <title>united_states</title>
    <desc>Created with Sketch.</desc>
    <defs></defs>
    <g id="Visual-Design" stroke="none" stroke-width="1" fill="none" fill-rule="evenodd">
        <g id="Search-Results---Countries" transform="translate(-420.000000, -416.000000)">
            <g id="Group-4" transform="translate(320.000000, 140.000000)">
                <g id="united_states" transform="translate(100.000000, 276.000000)">
                    <circle id="white" fill="#FFFFFF" cx="24" cy="24" r="24"></circle>
                    <path d="M24,11.1999994 L44.3054056,11.2 L44.3054048,11.1999989 C43.459032,9.86016211 42.4837104,8.60990664 41.3968739,7.46666632 L41.3968757,7.46666667 L24,7.46666651 L24,11.1999994 L24,11.1999994 L24,11.1999994 L24,11.1999994 L24,11.1999994 Z M24,0 C28.7317496,0 33.1436752,1.36932961 36.8611208,3.73333333 L36.8611208,3.73333333 L24,3.73333333 L24,0 L24,0 L24,0 L24,0 L24,0 Z M24,18.6666667 L47.4052896,18.6666667 C47.1133037,17.3798866 46.7179237,16.1323768 46.2283459,14.9333333 L46.2283459,14.9333333 L24,14.9333333 L24,18.6666667 L24,18.6666667 L24,18.6666667 L24,18.6666667 L24,18.6666667 Z M0,24 C0,24.7189323 0.0316111653,25.4304815 0.0935193888,26.1333333 L47.9064805,26.1333333 C47.9683888,25.4304815 48,24.7189323 48,24 C48,23.4623543 47.9823211,22.9288378 47.9475128,22.4 L47.9475128,22.4 L24,22.4 L24,24 L0,24 L0,24 L0,24 L0,24 L0,24 Z M47.2778027,29.8666667 C46.9539611,31.1556693 46.5258616,32.4032757 46.0029904,33.6 L46.0029904,33.6 L1.99700947,33.6 C1.47413849,32.4032757 1.04603892,31.1556693 0.722197365,29.8666667 L47.2778027,29.8666667 L47.2778027,29.8666667 L47.2778027,29.8666667 L47.2778027,29.8666667 L47.2778027,29.8666667 Z M43.9585363,37.3333333 C43.0568451,38.6803901 42.0223989,39.9310736 40.8739155,41.0666667 L40.8739155,41.0666667 L7.12608459,41.0666667 C5.97760101,39.9310736 4.94315493,38.6803901 4.04146373,37.3333333 L43.9585363,37.3333333 L43.9585363,37.3333333 L43.9585363,37.3333333 L43.9585363,37.3333333 L43.9585363,37.3333333 Z M35.9813576,44.8000005 C32.4554936,46.8353787 28.3637528,48 24,48 C19.6362472,48 15.5445065,46.8353787 12.0186424,44.8000005 L35.9813584,44.8 L35.9813576,44.8000005 L35.9813576,44.8000005 L35.9813576,44.8000005 L35.9813576,44.8000005 L35.9813576,44.8000005 Z" id="red" fill="#E94B35"></path>
                    <path d="M24,0 C10.7451654,0 7.15771797e-15,10.7451654 0,24 L24,24 L24,0 L24,0 L24,0 L24,0 L24,0 Z" id="blue" fill="#227FBB"></path>
                    <g id="stars" transform="translate(1.866667, 2.400000)" fill="#FFFFFF">
                        <polygon id="star" points="7.31049299 6.79003101 6.5829684 7.19999997 6.7219132 6.33167184 6.13333333 5.71671843 6.9467308 5.59003093 7.31049304 4.8 7.67425549 5.59003115 8.48765291 5.71671907 7.8990728 6.331672 8.03801763 7.2"></polygon>
                        <polygon id="star" points="7.31049299 11.0566977 6.5829684 11.4666666 6.7219132 10.5983385 6.13333333 9.98338509 6.9467308 9.8566976 7.31049304 9.06666667 7.67425549 9.85669781 8.48765291 9.98338573 7.8990728 10.5983387 8.03801763 11.4666667"></polygon>
                        <polygon id="star" points="4.37715965 9.45669768 3.64963507 9.86666664 3.78857987 8.99833851 3.2 8.38338509 4.01339747 8.2566976 4.37715971 7.46666667 4.74092216 8.25669781 5.55431957 8.38338573 4.96573947 8.99833867 5.10468429 9.86666667"></polygon>
                        <polygon id="star" points="4.11049299 13.4566977 3.3829684 13.8666666 3.5219132 12.9983385 2.93333333 12.3833851 3.7467308 12.2566976 4.11049304 11.4666667 4.47425549 12.2566978 5.28765291 12.3833857 4.6990728 12.9983387 4.83801763 13.8666667"></polygon>
                        <polygon id="star" points="6.77715965 16.1233643 6.04963507 16.5333333 6.18857987 15.6650052 5.6 15.0500518 6.41339747 14.9233643 6.77715971 14.1333333 7.14092216 14.9233645 7.95431957 15.0500524 7.36573947 15.6650053 7.50468429 16.5333333"></polygon>
                        <polygon id="star" points="4.11049299 17.7233643 3.3829684 18.1333333 3.5219132 17.2650052 2.93333333 16.6500518 3.7467308 16.5233643 4.11049304 15.7333333 4.47425549 16.5233645 5.28765291 16.6500524 4.6990728 17.2650053 4.83801763 18.1333333"></polygon>
                        <polygon id="star" points="1.17715966 15.590031 0.449635053 16 0.588579856 15.1316718 0 14.5167184 0.813397459 14.3900309 1.1771597 13.6 1.54092217 14.3900311 2.35431957 14.5167191 1.76573947 15.131672 1.9046843 16"></polygon>
                        <polygon id="star" points="1.17715966 19.8566977 0.449635053 20.2666666 0.588579856 19.3983385 0 18.7833851 0.813397459 18.6566976 1.1771597 17.8666667 1.54092217 18.6566978 2.35431957 18.7833857 1.76573947 19.3983387 1.9046843 20.2666667"></polygon>
                        <polygon id="star" points="7.31049299 19.8566977 6.5829684 20.2666666 6.7219132 19.3983385 6.13333333 18.7833851 6.9467308 18.6566976 7.31049304 17.8666667 7.67425549 18.6566978 8.48765291 18.7833857 7.8990728 19.3983387 8.03801763 20.2666667"></polygon>
                        <polygon id="star" points="19.5771597 1.990031 18.8496351 2.39999998 18.9885799 1.53167183 18.4 0.916718432 19.2133975 0.790030944 19.5771597 0 19.9409222 0.790031139 20.7543196 0.916719064 20.1657395 1.53167199 20.3046843 2.4"></polygon>
                        <polygon id="star" points="19.5771597 6.25669768 18.8496351 6.66666664 18.9885799 5.79833851 18.4 5.18338509 19.2133975 5.0566976 19.5771597 4.26666667 19.9409222 5.05669781 20.7543196 5.18338573 20.1657395 5.79833867 20.3046843 6.66666667"></polygon>
                        <polygon id="star" points="19.5771597 10.5233643 18.8496351 10.9333333 18.9885799 10.0650052 18.4 9.45005176 19.2133975 9.32336427 19.5771597 8.53333333 19.9409222 9.32336448 20.7543196 9.4500524 20.1657395 10.0650053 20.3046843 10.9333333"></polygon>
                        <polygon id="star" points="19.5771597 14.790031 18.8496351 15.2 18.9885799 14.3316718 18.4 13.7167184 19.2133975 13.5900309 19.5771597 12.8 19.9409222 13.5900311 20.7543196 13.7167191 20.1657395 14.331672 20.3046843 15.2"></polygon>
                        <polygon id="star" points="16.3771597 4.39003101 15.6496351 4.79999997 15.7885799 3.93167184 15.2 3.31671843 16.0133975 3.19003093 16.3771597 2.4 16.7409222 3.19003115 17.5543196 3.31671907 16.9657395 3.931672 17.1046843 4.8"></polygon>
                        <polygon id="star" points="16.3771597 8.65669768 15.6496351 9.06666664 15.7885799 8.19833851 15.2 7.58338509 16.0133975 7.4566976 16.3771597 6.66666667 16.7409222 7.45669781 17.5543196 7.58338573 16.9657395 8.19833867 17.1046843 9.06666667"></polygon>
                        <polygon id="star" points="16.3771597 12.9233643 15.6496351 13.3333333 15.7885799 12.4650052 15.2 11.8500518 16.0133975 11.7233643 16.3771597 10.9333333 16.7409222 11.7233645 17.5543196 11.8500524 16.9657395 12.4650053 17.1046843 13.3333333"></polygon>
                        <polygon id="star" points="16.3771597 17.190031 15.6496351 17.6 15.7885799 16.7316718 15.2 16.1167184 16.0133975 15.9900309 16.3771597 15.2 16.7409222 15.9900311 17.5543196 16.1167191 16.9657395 16.731672 17.1046843 17.6"></polygon>
                        <polygon id="star" points="19.5771597 19.3233643 18.8496351 19.7333333 18.9885799 18.8650052 18.4 18.2500518 19.2133975 18.1233643 19.5771597 17.3333333 19.9409222 18.1233645 20.7543196 18.2500524 20.1657395 18.8650053 20.3046843 19.7333333"></polygon>
                        <polygon id="star" points="13.710493 2.52336434 12.9829684 2.93333331 13.1219132 2.06500516 12.5333333 1.45005177 13.3467308 1.32336428 13.710493 0.533333333 14.0742555 1.32336447 14.8876529 1.4500524 14.2990728 2.06500533 14.4380176 2.93333333"></polygon>
                        <polygon id="star" points="13.710493 6.79003101 12.9829684 7.19999997 13.1219132 6.33167184 12.5333333 5.71671843 13.3467308 5.59003093 13.710493 4.8 14.0742555 5.59003115 14.8876529 5.71671907 14.2990728 6.331672 14.4380176 7.2"></polygon>
                        <polygon id="star" points="13.710493 11.0566977 12.9829684 11.4666666 13.1219132 10.5983385 12.5333333 9.98338509 13.3467308 9.8566976 13.710493 9.06666667 14.0742555 9.85669781 14.8876529 9.98338573 14.2990728 10.5983387 14.4380176 11.4666667"></polygon>
                        <polygon id="star" points="13.710493 15.3233643 12.9829684 15.7333333 13.1219132 14.8650052 12.5333333 14.2500518 13.3467308 14.1233643 13.710493 13.3333333 14.0742555 14.1233645 14.8876529 14.2500524 14.2990728 14.8650053 14.4380176 15.7333333"></polygon>
                        <polygon id="star" points="10.510493 4.92336435 9.7829684 5.33333331 9.9219132 4.46500517 9.33333333 3.85005176 10.1467308 3.72336427 10.510493 2.93333333 10.8742555 3.72336448 11.6876529 3.8500524 11.0990728 4.46500533 11.2380176 5.33333333"></polygon>
                        <polygon id="star" points="10.510493 9.19003101 9.7829684 9.59999997 9.9219132 8.73167184 9.33333333 8.11671843 10.1467308 7.99003093 10.510493 7.2 10.8742555 7.99003115 11.6876529 8.11671907 11.0990728 8.731672 11.2380176 9.6"></polygon>
                        <polygon id="star" points="10.510493 13.4566977 9.7829684 13.8666666 9.9219132 12.9983385 9.33333333 12.3833851 10.1467308 12.2566976 10.510493 11.4666667 10.8742555 12.2566978 11.6876529 12.3833857 11.0990728 12.9983387 11.2380176 13.8666667"></polygon>
                        <polygon id="star" points="10.510493 17.7233643 9.7829684 18.1333333 9.9219132 17.2650052 9.33333333 16.6500518 10.1467308 16.5233643 10.510493 15.7333333 10.8742555 16.5233645 11.6876529 16.6500524 11.0990728 17.2650053 11.2380176 18.1333333"></polygon>
                        <polygon id="star" points="13.710493 19.8566977 12.9829684 20.2666666 13.1219132 19.3983385 12.5333333 18.7833851 13.3467308 18.6566976 13.710493 17.8666667 14.0742555 18.6566978 14.8876529 18.7833857 14.2990728 19.3983387 14.4380176 20.2666667"></polygon>
                    </g>
                </g>
            </g>
        </g>
    </g>
</svg>