<?xml version="1.0" encoding="UTF-8" standalone="no"?>
<svg width="46px" height="48px" viewBox="0 0 46 48" version="1.1" xmlns="http://www.w3.org/2000/svg" xmlns:xlink="http://www.w3.org/1999/xlink">
    <!-- Generator: Sketch 39.1 (31720) - http://www.bohemiancoding.com/sketch -->
    <title>Group</title>
    <desc>Created with Sketch.</desc>
    <defs></defs>
    <g id="Visual-Design" stroke="none" stroke-width="1" fill="none" fill-rule="evenodd">
        <g id="Landing" transform="translate(-1137.000000, -445.000000)" fill="#3188D3">
            <g id="Group-13" transform="translate(202.000000, 415.000000)">
                <g id="Group-25" transform="translate(880.000000, 0.000000)">
                    <g id="upload-folder.1" transform="translate(55.000000, 30.000000)">
                        <g id="Group">
                            <g transform="translate(12.000000, 26.000000)" id="Shape">
                                <path d="M11,22 C4.934,22 0,17.064 0,11 C0,4.936 4.934,0 11,0 C17.064,0 22,4.936 22,11 C22,17.064 17.064,22 11,22 L11,22 Z M11,2 C6.038,2 2,6.038 2,11 C2,15.962 6.038,20 11,20 C15.962,20 20,15.962 20,11 C20,6.038 15.962,2 11,2 L11,2 Z"></path>
                                <path d="M11,18 C10.448,18 10,17.552 10,17 L10,5 C10,4.448 10.448,4 11,4 C11.552,4 12,4.448 12,5 L12,17 C12,17.552 11.552,18 11,18 L11,18 Z"></path>
                                <path d="M15,10 C14.744,10 14.488,9.902 14.292,9.708 L11,6.414 L7.708,9.706 C7.318,10.096 6.684,10.096 6.294,9.706 C5.904,9.316 5.904,8.682 6.294,8.292 L10.294,4.292 C10.684,3.902 11.318,3.902 11.708,4.292 L15.708,8.292 C16.098,8.682 16.098,9.316 15.708,9.706 C15.512,9.902 15.256,10 15,10 L15,10 Z"></path>
                            </g>
                            <g id="Shape">
                                <path d="M41,38 L37,38 C36.448,38 36,37.552 36,37 C36,36.448 36.448,36 37,36 L41,36 C42.654,36 44,34.654 44,33 L44,15 C44,13.346 42.654,12 41,12 L17.882,12 C15.728,12 13.822,10.626 13.14,8.582 L12.962,8.05 C12.554,6.824 11.41,6 10.118,6 L5,6 C3.346,6 2,7.346 2,9 L2,33 C2,34.654 3.346,36 5,36 L9,36 C9.552,36 10,36.448 10,37 C10,37.552 9.552,38 9,38 L5,38 C2.244,38 0,35.758 0,33 L0,9 C0,6.244 2.244,4 5,4 L10.118,4 C12.272,4 14.178,5.374 14.86,7.418 L15.036,7.948 C15.446,9.176 16.59,10 17.882,10 L41,10 C43.758,10 46,12.244 46,15 L46,33 C46,35.758 43.758,38 41,38 L41,38 Z"></path>
                                <path d="M43,12 C42.448,12 42,11.552 42,11 L42,5 C42,3.346 40.654,2 39,2 L7,2 C5.346,2 4,3.346 4,5 C4,5.552 3.552,6 3,6 C2.448,6 2,5.552 2,5 C2,2.244 4.244,0 7,0 L39,0 C41.758,0 44,2.244 44,5 L44,11 C44,11.552 43.552,12 43,12 L43,12 Z"></path>
                            </g>
                        </g>
                    </g>
                </g>
            </g>
        </g>
    </g>
</svg>